<svg width="295" height="201" viewBox="0 0 295 201" fill="none" xmlns="http://www.w3.org/2000/svg">
<path d="M108.436 108.526L106.668 110.294L108.436 112.061L120.877 124.503L122.645 126.271L124.413 124.503L149.38 99.5359C153.792 95.1239 153.792 87.9706 149.38 83.5586C144.968 79.1466 137.815 79.1466 133.403 83.5586L108.436 108.526Z" fill="#DC5E35" stroke="#4A090B" stroke-width="5"/>
<path d="M198.629 131.682L200.397 133.449L202.164 131.682L215.793 118.052L217.561 116.285L215.793 114.517L185.427 84.1501C180.687 79.4102 173.002 79.4102 168.262 84.1501C163.522 88.89 163.522 96.5749 168.262 101.315L198.629 131.682Z" fill="#EDD84B" stroke="#4A090B" stroke-width="5"/>
<path d="M237.374 24.7345C240.801 18.36 249.943 18.36 253.37 24.7345L269.276 54.3235C272.528 60.3728 268.146 67.7029 261.278 67.7029H229.467C222.599 67.7029 218.217 60.3727 221.469 54.3235L237.374 24.7345Z" fill="#EDD84B"/>
<mask id="path-4-outside-1_1065_1500" maskUnits="userSpaceOnUse" x="195.629" y="129.834" width="50.1178" height="71.5857" fill="black">
<rect fill="white" x="195.629" y="129.834" width="50.1178" height="71.5857"/>
<path fill-rule="evenodd" clip-rule="evenodd" d="M239.053 140.256L224.036 137.803L217.428 178.25L210.932 177.189C206.988 176.544 203.268 179.219 202.624 183.164C201.979 187.108 204.655 190.828 208.599 191.472L222.97 193.82C222.984 193.822 222.999 193.824 223.013 193.827L230.112 194.987L239.053 140.256Z"/>
</mask>
<path fill-rule="evenodd" clip-rule="evenodd" d="M239.053 140.256L224.036 137.803L217.428 178.25L210.932 177.189C206.988 176.544 203.268 179.219 202.624 183.164C201.979 187.108 204.655 190.828 208.599 191.472L222.97 193.82C222.984 193.822 222.999 193.824 223.013 193.827L230.112 194.987L239.053 140.256Z" fill="#FAF1DC"/>
<path d="M224.036 137.803L224.842 132.868L219.907 132.062L219.101 136.997L224.036 137.803ZM239.053 140.256L243.988 141.062L244.794 136.128L239.859 135.322L239.053 140.256ZM217.428 178.25L216.622 183.184L221.556 183.991L222.363 179.056L217.428 178.25ZM208.599 191.472L207.793 196.407L208.599 191.472ZM222.97 193.82L223.776 188.885L222.97 193.82ZM223.013 193.827L223.819 188.892L223.804 188.89L223.79 188.887L223.013 193.827ZM230.112 194.987L229.306 199.921L234.241 200.727L235.047 195.793L230.112 194.987ZM223.23 142.737L238.247 145.191L239.859 135.322L224.842 132.868L223.23 142.737ZM222.363 179.056L228.97 138.609L219.101 136.997L212.493 177.444L222.363 179.056ZM210.126 182.123L216.622 183.184L218.234 173.315L211.738 172.254L210.126 182.123ZM207.558 183.97C207.758 182.751 208.907 181.924 210.126 182.123L211.738 172.254C205.069 171.164 198.779 175.688 197.689 182.358L207.558 183.97ZM209.405 186.538C208.186 186.338 207.359 185.189 207.558 183.97L197.689 182.358C196.6 189.027 201.123 195.317 207.793 196.407L209.405 186.538ZM223.776 188.885L209.405 186.538L207.793 196.407L222.164 198.754L223.776 188.885ZM223.79 188.887C223.785 188.887 223.781 188.886 223.776 188.885L222.164 198.754C222.188 198.758 222.212 198.762 222.235 198.766L223.79 188.887ZM230.918 190.052L223.819 188.892L222.207 198.761L229.306 199.921L230.918 190.052ZM234.119 139.45L225.178 194.18L235.047 195.793L243.988 141.062L234.119 139.45Z" fill="#4A090B" mask="url(#path-4-outside-1_1065_1500)"/>
<mask id="path-6-outside-2_1065_1500" maskUnits="userSpaceOnUse" x="251.861" y="134.531" width="40" height="66" fill="black">
<rect fill="white" x="251.861" y="134.531" width="40" height="66"/>
<path fill-rule="evenodd" clip-rule="evenodd" d="M257.826 139.531L273.042 139.531L273.042 180.514L279.624 180.514C283.621 180.514 286.861 183.753 286.861 187.75C286.861 191.746 283.621 194.986 279.624 194.986L273.042 194.986L273.042 194.987L257.826 194.987L257.826 139.531Z"/>
</mask>
<path fill-rule="evenodd" clip-rule="evenodd" d="M257.826 139.531L273.042 139.531L273.042 180.514L279.624 180.514C283.621 180.514 286.861 183.753 286.861 187.75C286.861 191.746 283.621 194.986 279.624 194.986L273.042 194.986L273.042 194.987L257.826 194.987L257.826 139.531Z" fill="#FAF1DC"/>
<path d="M273.042 139.531L273.042 134.531L278.042 134.531L278.042 139.531L273.042 139.531ZM257.826 139.531L252.826 139.531L252.826 134.531L257.826 134.531L257.826 139.531ZM273.042 180.514L273.042 185.514L268.042 185.514L268.042 180.514L273.042 180.514ZM279.624 180.514L279.624 185.514L279.624 180.514ZM273.042 194.986L268.042 194.986L268.042 189.986L273.042 189.986L273.042 194.986ZM273.042 194.987L278.042 194.987L278.042 199.987L273.042 199.987L273.042 194.987ZM257.826 194.987L257.826 199.987L252.826 199.987L252.826 194.987L257.826 194.987ZM273.042 144.531L257.826 144.531L257.826 134.531L273.042 134.531L273.042 144.531ZM268.042 180.514L268.042 139.531L278.042 139.531L278.042 180.514L268.042 180.514ZM279.624 185.514L273.042 185.514L273.042 175.514L279.624 175.514L279.624 185.514ZM281.861 187.75C281.861 186.515 280.859 185.514 279.624 185.514L279.624 175.514C286.382 175.514 291.861 180.992 291.861 187.75L281.861 187.75ZM279.624 189.986C280.859 189.986 281.861 188.985 281.861 187.75L291.861 187.75C291.861 194.508 286.382 199.986 279.624 199.986L279.624 189.986ZM273.042 189.986L279.624 189.986L279.624 199.986L273.042 199.986L273.042 189.986ZM268.042 194.987L268.042 194.986L278.042 194.986L278.042 194.987L268.042 194.987ZM257.826 189.987L273.042 189.987L273.042 199.987L257.826 199.987L257.826 189.987ZM262.826 139.531L262.826 194.987L252.826 194.987L252.826 139.531L262.826 139.531Z" fill="#4A090B" mask="url(#path-6-outside-2_1065_1500)"/>
<rect x="196.261" y="54.9226" width="98.2254" height="98.2254" fill="#EDD84B"/>
<circle cx="3.04509" cy="3.04509" r="3.04509" transform="matrix(-1 0 0 1 255.782 80.8972)" fill="#4A090B"/>
<circle cx="3.04509" cy="3.04509" r="3.04509" transform="matrix(-1 0 0 1 220.255 80.8972)" fill="#4A090B"/>
<path d="M238.085 95.6633C237.042 96.2985 234.667 96.9637 232.272 95.6633" stroke="#4A090B" stroke-width="5" stroke-linecap="round"/>
<path d="M285.739 106.451L285.739 103.951L283.239 103.951L263.965 103.951L261.465 103.951L261.465 106.451L261.465 134.882C261.465 141.585 266.899 147.019 273.602 147.019C280.305 147.019 285.739 141.585 285.739 134.882L285.739 106.451Z" fill="#EDD84B" stroke="#4A090B" stroke-width="5"/>
<rect x="252.643" y="95.8376" width="39.4004" height="13.627" fill="#EDD84B"/>
<path d="M158.372 26.2685C159.802 24.8527 162.226 25.9194 162.148 27.9297L161.817 36.4421C161.794 37.0559 162.025 37.6521 162.458 38.0884L168.453 44.1407C169.869 45.5701 168.802 47.9945 166.791 47.9164L158.279 47.5858C157.665 47.5619 157.069 47.7938 156.633 48.226L150.581 54.221C149.151 55.6369 146.727 54.5702 146.805 52.5598L147.135 44.0474C147.159 43.4337 146.927 42.8375 146.495 42.4011L140.5 36.3489C139.084 34.9195 140.151 32.4951 142.161 32.5732L150.674 32.9038C151.288 32.9276 151.884 32.6958 152.32 32.2635L158.372 26.2685Z" fill="#FAF1DC"/>
<path d="M176.81 6.78996C177.621 5.98692 178.996 6.59194 178.952 7.73219L178.764 12.5604C178.751 12.9085 178.882 13.2466 179.128 13.4941L182.528 16.9269C183.331 17.7376 182.726 19.1128 181.586 19.0685L176.757 18.8809C176.409 18.8674 176.071 18.9989 175.824 19.2441L172.391 22.6444C171.58 23.4475 170.205 22.8424 170.249 21.7022L170.437 16.874C170.45 16.5259 170.319 16.1878 170.074 15.9402L166.673 12.5074C165.87 11.6967 166.475 10.3216 167.616 10.3659L172.444 10.5534C172.792 10.567 173.13 10.4355 173.378 10.1903L176.81 6.78996Z" fill="#FAF1DC"/>
<mask id="path-16-outside-3_1065_1500" maskUnits="userSpaceOnUse" x="29.8343" y="140.302" width="37" height="61" fill="black">
<rect fill="white" x="29.8343" y="140.302" width="37" height="61"/>
<path fill-rule="evenodd" clip-rule="evenodd" d="M61.3386 145.302H47.4476V182.714H41.4402C37.7919 182.714 34.8343 185.672 34.8343 189.32C34.8343 192.968 37.7919 195.926 41.4403 195.926L47.4476 195.926H61.3386V189.421C61.3391 189.387 61.3394 189.354 61.3394 189.32C61.3394 189.286 61.3391 189.253 61.3386 189.219V145.302Z"/>
</mask>
<path fill-rule="evenodd" clip-rule="evenodd" d="M61.3386 145.302H47.4476V182.714H41.4402C37.7919 182.714 34.8343 185.672 34.8343 189.32C34.8343 192.968 37.7919 195.926 41.4403 195.926L47.4476 195.926H61.3386V189.421C61.3391 189.387 61.3394 189.354 61.3394 189.32C61.3394 189.286 61.3391 189.253 61.3386 189.219V145.302Z" fill="#FAF1DC"/>
<path d="M47.4476 145.302V140.302H42.4476V145.302H47.4476ZM61.3386 145.302H66.3386V140.302H61.3386V145.302ZM47.4476 182.714V187.714H52.4476V182.714H47.4476ZM34.8343 189.32H29.8343H34.8343ZM41.4403 195.926L41.4403 190.926H41.4403V195.926ZM47.4476 195.926L47.4476 200.926H47.4476V195.926ZM61.3386 195.926V200.926H66.3386V195.926H61.3386ZM61.3386 189.421L56.3392 189.346L56.3386 189.384V189.421H61.3386ZM61.3386 189.219H56.3386V189.257L56.3392 189.294L61.3386 189.219ZM47.4476 150.302H61.3386V140.302H47.4476V150.302ZM52.4476 182.714V145.302H42.4476V182.714H52.4476ZM41.4402 187.714H47.4476V177.714H41.4402V187.714ZM39.8343 189.32C39.8343 188.433 40.5533 187.714 41.4402 187.714V177.714C35.0305 177.714 29.8343 182.91 29.8343 189.32H39.8343ZM41.4403 190.926C40.5533 190.926 39.8343 190.207 39.8343 189.32H29.8343C29.8343 195.73 35.0305 200.926 41.4403 200.926V190.926ZM47.4476 190.926L41.4403 190.926L41.4402 200.926L47.4476 200.926L47.4476 190.926ZM61.3386 190.926H47.4476V200.926H61.3386V190.926ZM56.3386 189.421V195.926H66.3386V189.421H56.3386ZM56.3394 189.32C56.3394 189.329 56.3393 189.338 56.3392 189.346L66.3381 189.496C66.3389 189.437 66.3394 189.379 66.3394 189.32H56.3394ZM56.3392 189.294C56.3393 189.303 56.3394 189.311 56.3394 189.32H66.3394C66.3394 189.261 66.3389 189.203 66.3381 189.144L56.3392 189.294ZM56.3386 145.302V189.219H66.3386V145.302H56.3386Z" fill="#4A090B" mask="url(#path-16-outside-3_1065_1500)"/>
<mask id="path-18-outside-4_1065_1500" maskUnits="userSpaceOnUse" x="69.1526" y="140.302" width="37" height="61" fill="black">
<rect fill="white" x="69.1526" y="140.302" width="37" height="61"/>
<path fill-rule="evenodd" clip-rule="evenodd" d="M74.6471 145.302H88.5382V182.714H94.5467C98.1951 182.714 101.153 185.672 101.153 189.32C101.153 192.968 98.1951 195.926 94.5467 195.926L88.5382 195.926H74.6471V145.302Z"/>
</mask>
<path fill-rule="evenodd" clip-rule="evenodd" d="M74.6471 145.302H88.5382V182.714H94.5467C98.1951 182.714 101.153 185.672 101.153 189.32C101.153 192.968 98.1951 195.926 94.5467 195.926L88.5382 195.926H74.6471V145.302Z" fill="#FAF1DC"/>
<path d="M88.5382 145.302V140.302H93.5382V145.302H88.5382ZM74.6471 145.302H69.6471V140.302H74.6471V145.302ZM88.5382 182.714V187.714H83.5382V182.714H88.5382ZM94.5467 195.926L94.5467 190.926H94.5467V195.926ZM88.5382 195.926L88.5382 200.926H88.5382V195.926ZM74.6471 195.926V200.926H69.6471V195.926H74.6471ZM88.5382 150.302H74.6471V140.302H88.5382V150.302ZM83.5382 182.714V145.302H93.5382V182.714H83.5382ZM94.5467 187.714H88.5382V177.714H94.5467V187.714ZM96.1526 189.32C96.1526 188.433 95.4336 187.714 94.5467 187.714V177.714C100.956 177.714 106.153 182.91 106.153 189.32H96.1526ZM94.5467 190.926C95.4336 190.926 96.1526 190.207 96.1526 189.32H106.153C106.153 195.73 100.956 200.926 94.5467 200.926V190.926ZM88.5381 190.926L94.5467 190.926L94.5467 200.926L88.5382 200.926L88.5381 190.926ZM74.6471 190.926H88.5382V200.926H74.6471V190.926ZM79.6471 145.302V195.926H69.6471V145.302H79.6471Z" fill="#4A090B" mask="url(#path-18-outside-4_1065_1500)"/>
<path fill-rule="evenodd" clip-rule="evenodd" d="M108.047 72.1604C108.084 71.4543 108.102 70.7434 108.102 70.0283C108.102 47.57 89.8964 29.364 67.4382 29.364C44.9799 29.364 26.7739 47.57 26.7739 70.0283C26.7739 71.4161 26.8434 72.7876 26.9792 74.1397C18.5402 83.8057 13.428 96.4511 13.428 110.29C13.428 140.662 38.0491 165.283 68.4206 165.283C98.7922 165.283 123.413 140.662 123.413 110.29C123.413 95.4854 117.563 82.0467 108.047 72.1604Z" fill="#DC5E35"/>
<path d="M43.6153 117.58L45.0228 115.514L42.9566 114.106L28.4145 104.201L26.3483 102.793L24.9409 104.859L5.0627 134.042C1.55 139.198 2.88281 146.226 8.03962 149.739C13.1964 153.252 20.2244 151.919 23.7371 146.762L43.6153 117.58Z" fill="#DC5E35" stroke="#4A090B" stroke-width="5"/>
<rect x="17.1819" y="108.665" width="19.7313" height="35.0615" transform="rotate(-60 17.1819 108.665)" fill="#DC5E35"/>
<circle cx="3.04509" cy="3.04509" r="3.04509" transform="matrix(-1 0 0 1 101.153 61.2859)" fill="#4A090B"/>
<circle cx="3.04509" cy="3.04509" r="3.04509" transform="matrix(-1 0 0 1 65.6253 61.2859)" fill="#4A090B"/>
<path d="M83.4554 76.0515C82.4125 76.6867 80.037 77.3518 77.642 76.0515" stroke="#4A090B" stroke-width="5" stroke-linecap="round"/>
</svg>
