<svg width="193" height="221" viewBox="0 0 193 221" fill="none" xmlns="http://www.w3.org/2000/svg">
<path d="M161.619 12.4829C163.049 11.0671 165.473 12.1338 165.395 14.1441L165.064 22.6565C165.041 23.2703 165.272 23.8664 165.705 24.3028L171.7 30.3551C173.116 31.7844 172.049 34.2089 170.038 34.1308L161.526 33.8001C160.912 33.7763 160.316 34.0081 159.88 34.4404L153.828 40.4354C152.398 41.8512 149.974 40.7845 150.052 38.7742L150.382 30.2618C150.406 29.648 150.174 29.0519 149.742 28.6155L143.747 22.5632C142.331 21.1339 143.398 18.7094 145.408 18.7875L153.921 19.1182C154.535 19.142 155.131 18.9101 155.567 18.4779L161.619 12.4829Z" fill="#FAF1DC"/>
<mask id="path-2-outside-1_1065_1562" maskUnits="userSpaceOnUse" x="22.8368" y="151.496" width="41" height="68" fill="black">
<rect fill="white" x="22.8368" y="151.496" width="41" height="68"/>
<path fill-rule="evenodd" clip-rule="evenodd" d="M58.2072 157.496H42.8141V198.955H36.1571C32.1142 198.955 28.8368 202.232 28.8368 206.275C28.8368 210.318 32.1142 213.596 36.1571 213.596H50.8878C50.917 213.596 50.9461 213.595 50.9752 213.595H58.2072V206.388C58.2078 206.351 58.2081 206.313 58.2081 206.275C58.2081 206.237 58.2078 206.2 58.2072 206.162V157.496Z"/>
</mask>
<path fill-rule="evenodd" clip-rule="evenodd" d="M58.2072 157.496H42.8141V198.955H36.1571C32.1142 198.955 28.8368 202.232 28.8368 206.275C28.8368 210.318 32.1142 213.596 36.1571 213.596H50.8878C50.917 213.596 50.9461 213.595 50.9752 213.595H58.2072V206.388C58.2078 206.351 58.2081 206.313 58.2081 206.275C58.2081 206.237 58.2078 206.2 58.2072 206.162V157.496Z" fill="#FAF1DC"/>
<path d="M42.8141 157.496V151.955H37.2734V157.496H42.8141ZM58.2072 157.496H63.7479V151.955H58.2072V157.496ZM42.8141 198.955V204.496H48.3547V198.955H42.8141ZM50.9752 213.595V208.054H50.9429L50.9105 208.055L50.9752 213.595ZM58.2072 213.595V219.136H63.7479V213.595H58.2072ZM58.2072 206.388L52.6672 206.304L52.6665 206.346V206.388H58.2072ZM58.2072 206.162H52.6665V206.204L52.6672 206.246L58.2072 206.162ZM42.8141 163.037H58.2072V151.955H42.8141V163.037ZM48.3547 198.955V157.496H37.2734V198.955H48.3547ZM36.1571 204.496H42.8141V193.414H36.1571V204.496ZM34.3775 206.275C34.3775 205.292 35.1743 204.496 36.1571 204.496V193.414C29.0542 193.414 23.2961 199.172 23.2961 206.275H34.3775ZM36.1571 208.055C35.1742 208.055 34.3775 207.258 34.3775 206.275H23.2961C23.2961 213.378 29.0542 219.136 36.1571 219.136V208.055ZM50.8878 208.055H36.1571V219.136H50.8878V208.055ZM50.9105 208.055C50.9028 208.055 50.8952 208.055 50.8878 208.055V219.136C50.9387 219.136 50.9894 219.136 51.0398 219.135L50.9105 208.055ZM58.2072 208.054H50.9752V219.136H58.2072V208.054ZM52.6665 206.388V213.595H63.7479V206.388H52.6665ZM52.6674 206.275C52.6674 206.285 52.6673 206.295 52.6672 206.304L63.7473 206.472C63.7483 206.407 63.7488 206.341 63.7488 206.275H52.6674ZM52.6672 206.246C52.6673 206.256 52.6674 206.265 52.6674 206.275H63.7488C63.7488 206.21 63.7483 206.144 63.7473 206.078L52.6672 206.246ZM52.6665 157.496V206.162H63.7479V157.496H52.6665Z" fill="#4A090B" mask="url(#path-2-outside-1_1065_1562)"/>
<mask id="path-4-outside-2_1065_1562" maskUnits="userSpaceOnUse" x="67.3259" y="151.496" width="41" height="68" fill="black">
<rect fill="white" x="67.3259" y="151.496" width="41" height="68"/>
<path fill-rule="evenodd" clip-rule="evenodd" d="M72.9555 157.496H88.3487V198.955H95.0056C99.0485 198.955 102.326 202.232 102.326 206.275C102.326 210.318 99.0485 213.596 95.0056 213.596H80.2749C80.2458 213.596 80.2166 213.595 80.1875 213.595H72.9555V206.388C72.9549 206.351 72.9546 206.313 72.9546 206.275C72.9546 206.237 72.9549 206.2 72.9555 206.162V157.496Z"/>
</mask>
<path fill-rule="evenodd" clip-rule="evenodd" d="M72.9555 157.496H88.3487V198.955H95.0056C99.0485 198.955 102.326 202.232 102.326 206.275C102.326 210.318 99.0485 213.596 95.0056 213.596H80.2749C80.2458 213.596 80.2166 213.595 80.1875 213.595H72.9555V206.388C72.9549 206.351 72.9546 206.313 72.9546 206.275C72.9546 206.237 72.9549 206.2 72.9555 206.162V157.496Z" fill="#FAF1DC"/>
<path d="M88.3487 157.496V151.955H93.8894V157.496H88.3487ZM72.9555 157.496H67.4148V151.955H72.9555V157.496ZM88.3487 198.955V204.496H82.808V198.955H88.3487ZM80.1875 213.595V208.054H80.2199L80.2522 208.055L80.1875 213.595ZM72.9555 213.595V219.136H67.4148V213.595H72.9555ZM72.9555 206.388L78.4955 206.304L78.4962 206.346V206.388H72.9555ZM72.9555 206.162H78.4962V206.204L78.4955 206.246L72.9555 206.162ZM88.3487 163.037H72.9555V151.955H88.3487V163.037ZM82.808 198.955V157.496H93.8894V198.955H82.808ZM95.0056 204.496H88.3487V193.414H95.0056V204.496ZM96.7852 206.275C96.7852 205.292 95.9885 204.496 95.0056 204.496V193.414C102.109 193.414 107.867 199.172 107.867 206.275H96.7852ZM95.0056 208.055C95.9885 208.055 96.7852 207.258 96.7852 206.275H107.867C107.867 213.378 102.109 219.136 95.0056 219.136V208.055ZM80.2749 208.055H95.0056V219.136H80.2749V208.055ZM80.2522 208.055C80.2599 208.055 80.2675 208.055 80.2749 208.055V219.136C80.224 219.136 80.1733 219.136 80.1229 219.135L80.2522 208.055ZM72.9555 208.054H80.1875V219.136H72.9555V208.054ZM78.4962 206.388V213.595H67.4148V206.388H78.4962ZM78.4953 206.275C78.4953 206.285 78.4954 206.295 78.4955 206.304L67.4154 206.472C67.4144 206.407 67.4139 206.341 67.4139 206.275H78.4953ZM78.4955 206.246C78.4954 206.256 78.4953 206.265 78.4953 206.275H67.4139C67.4139 206.21 67.4144 206.144 67.4154 206.078L78.4955 206.246ZM78.4962 157.496V206.162H67.4148V157.496H78.4962Z" fill="#4A090B" mask="url(#path-4-outside-2_1065_1562)"/>
<mask id="path-6-outside-3_1065_1562" maskUnits="userSpaceOnUse" x="112.203" y="147.464" width="56.8783" height="76.164" fill="black">
<rect fill="white" x="112.203" y="147.464" width="56.8783" height="76.164"/>
<path fill-rule="evenodd" clip-rule="evenodd" d="M147.942 154.693L133.05 158.59L143.544 198.697L137.103 200.383C133.192 201.406 130.851 205.406 131.874 209.317C132.898 213.229 136.898 215.57 140.809 214.546L147.251 212.861L147.251 212.862L162.143 208.965L147.942 154.693Z"/>
</mask>
<path fill-rule="evenodd" clip-rule="evenodd" d="M147.942 154.693L133.05 158.59L143.544 198.697L137.103 200.383C133.192 201.406 130.851 205.406 131.874 209.317C132.898 213.229 136.898 215.57 140.809 214.546L147.251 212.861L147.251 212.862L162.143 208.965L147.942 154.693Z" fill="#FAF1DC"/>
<path d="M133.05 158.59L131.647 153.23L126.287 154.632L127.69 159.993L133.05 158.59ZM147.942 154.693L153.302 153.291L151.899 147.931L146.539 149.333L147.942 154.693ZM143.544 198.697L144.947 204.057L150.307 202.655L148.905 197.294L143.544 198.697ZM147.251 212.861L152.611 211.458L151.208 206.098L145.848 207.501L147.251 212.861ZM147.251 212.862L141.891 214.264L143.293 219.625L148.653 218.222L147.251 212.862ZM162.143 208.965L163.545 214.325L168.905 212.923L167.503 207.563L162.143 208.965ZM134.452 163.95L149.344 160.054L146.539 149.333L131.647 153.23L134.452 163.95ZM148.905 197.294L138.41 157.187L127.69 159.993L138.184 200.1L148.905 197.294ZM138.505 205.743L144.947 204.057L142.142 193.337L135.7 195.022L138.505 205.743ZM137.234 207.915C136.986 206.964 137.555 205.992 138.505 205.743L135.7 195.022C128.829 196.82 124.716 203.848 126.514 210.72L137.234 207.915ZM139.406 209.186C138.456 209.435 137.483 208.866 137.234 207.915L126.514 210.72C128.312 217.592 135.34 221.705 142.212 219.907L139.406 209.186ZM145.848 207.501L139.406 209.186L142.212 219.907L148.653 218.221L145.848 207.501ZM152.611 211.459L152.611 211.458L141.89 214.263L141.891 214.264L152.611 211.459ZM160.74 203.605L145.848 207.502L148.653 218.222L163.545 214.325L160.74 203.605ZM142.581 156.096L156.782 210.368L167.503 207.563L153.302 153.291L142.581 156.096Z" fill="#4A090B" mask="url(#path-6-outside-3_1065_1562)"/>
<mask id="path-8-outside-4_1065_1562" maskUnits="userSpaceOnUse" x="81.6395" y="153.287" width="41" height="68" fill="black">
<rect fill="white" x="81.6395" y="153.287" width="41" height="68"/>
<path fill-rule="evenodd" clip-rule="evenodd" d="M117.012 159.287H101.619V200.746H94.9598C90.9169 200.746 87.6395 204.023 87.6395 208.066C87.6395 212.109 90.9169 215.387 94.9598 215.387H109.691C109.72 215.387 109.749 215.386 109.778 215.386H117.012V159.287Z"/>
</mask>
<path fill-rule="evenodd" clip-rule="evenodd" d="M117.012 159.287H101.619V200.746H94.9598C90.9169 200.746 87.6395 204.023 87.6395 208.066C87.6395 212.109 90.9169 215.387 94.9598 215.387H109.691C109.72 215.387 109.749 215.386 109.778 215.386H117.012V159.287Z" fill="#FAF1DC"/>
<path d="M101.619 159.287V153.746H96.0783V159.287H101.619ZM117.012 159.287H122.553V153.746H117.012V159.287ZM101.619 200.746V206.287H107.16V200.746H101.619ZM109.778 215.386V209.845H109.746L109.713 209.846L109.778 215.386ZM117.012 215.386V220.927H122.553V215.386H117.012ZM101.619 164.828H117.012V153.746H101.619V164.828ZM107.16 200.746V159.287H96.0783V200.746H107.16ZM94.9598 206.287H101.619V195.205H94.9598V206.287ZM93.1802 208.066C93.1802 207.083 93.977 206.287 94.9598 206.287V195.205C87.8569 195.205 82.0988 200.963 82.0988 208.066H93.1802ZM94.9598 209.846C93.977 209.846 93.1802 209.049 93.1802 208.066H82.0988C82.0988 215.169 87.8569 220.927 94.9598 220.927V209.846ZM109.691 209.846H94.9598V220.927H109.691V209.846ZM109.713 209.846C109.706 209.846 109.698 209.846 109.691 209.846V220.927C109.741 220.927 109.792 220.927 109.843 220.926L109.713 209.846ZM117.012 209.845H109.778V220.927H117.012V209.845ZM111.471 159.287V215.386H122.553V159.287H111.471Z" fill="#4A090B" mask="url(#path-8-outside-4_1065_1562)"/>
<mask id="path-10-outside-5_1065_1562" maskUnits="userSpaceOnUse" x="0.153564" y="23.7034" width="134" height="163" fill="black">
<rect fill="white" x="0.153564" y="23.7034" width="134" height="163"/>
<path fill-rule="evenodd" clip-rule="evenodd" d="M111.005 77.1272C111.045 76.3449 111.066 75.5573 111.066 74.765C111.066 49.8781 90.8909 29.7034 66.0041 29.7034C41.1172 29.7034 20.9424 49.8781 20.9424 74.765C20.9424 76.3028 21.0195 77.8227 21.1699 79.3209C11.8185 90.0321 6.15356 104.045 6.15356 119.381C6.15356 153.037 33.4371 180.32 67.0929 180.32C100.749 180.32 128.032 153.037 128.032 119.381C128.032 102.975 121.549 88.0826 111.005 77.1272Z"/>
</mask>
<path fill-rule="evenodd" clip-rule="evenodd" d="M111.005 77.1272C111.045 76.3449 111.066 75.5573 111.066 74.765C111.066 49.8781 90.8909 29.7034 66.0041 29.7034C41.1172 29.7034 20.9424 49.8781 20.9424 74.765C20.9424 76.3028 21.0195 77.8227 21.1699 79.3209C11.8185 90.0321 6.15356 104.045 6.15356 119.381C6.15356 153.037 33.4371 180.32 67.0929 180.32C100.749 180.32 128.032 153.037 128.032 119.381C128.032 102.975 121.549 88.0826 111.005 77.1272Z" fill="#DC5E35"/>
<path d="M111.005 77.1272L105.471 76.8414C105.392 78.3713 105.95 79.8657 107.013 80.9694L111.005 77.1272ZM21.1699 79.3209L25.3437 82.9649C26.3511 81.811 26.8359 80.2915 26.6829 78.7674L21.1699 79.3209ZM105.525 74.765C105.525 75.4619 105.507 76.1542 105.471 76.8414L116.538 77.4129C116.583 76.5355 116.606 75.6527 116.606 74.765H105.525ZM66.0041 35.2441C87.8308 35.2441 105.525 52.9382 105.525 74.765H116.606C116.606 46.8181 93.9509 24.1627 66.0041 24.1627V35.2441ZM26.4831 74.765C26.4831 52.9382 44.1773 35.2441 66.0041 35.2441V24.1627C38.0572 24.1627 15.4018 46.8181 15.4018 74.765H26.4831ZM26.6829 78.7674C26.5509 77.4528 26.4831 76.1177 26.4831 74.765H15.4018C15.4018 76.488 15.4881 78.1926 15.6569 79.8745L26.6829 78.7674ZM11.6943 119.381C11.6943 105.435 16.8399 92.7053 25.3437 82.9649L16.9961 75.677C6.79712 87.359 0.612874 102.655 0.612874 119.381H11.6943ZM67.0929 174.779C36.4971 174.779 11.6943 149.977 11.6943 119.381H0.612874C0.612874 156.097 30.377 185.861 67.0929 185.861V174.779ZM122.492 119.381C122.492 149.977 97.6888 174.779 67.0929 174.779V185.861C103.809 185.861 133.573 156.097 133.573 119.381H122.492ZM107.013 80.9694C116.603 90.9341 122.492 104.464 122.492 119.381H133.573C133.573 101.485 126.495 85.2312 114.997 73.285L107.013 80.9694Z" fill="#4A090B" mask="url(#path-10-outside-5_1065_1562)"/>
<circle cx="55.8253" cy="55.3621" r="3.08041" fill="#4A090B"/>
<circle cx="91.7618" cy="55.3621" r="3.08041" fill="#4A090B"/>
<path d="M71.9988 72.0032H77.8795" stroke="#4A090B" stroke-width="5.54069" stroke-linecap="round"/>
<rect x="80.1302" y="83.7987" width="89.2511" height="89.2511" rx="14.9599" fill="#F2CDB2" stroke="#4A090B" stroke-width="5.54069"/>
<path d="M37.5469 109.043H34.7765V111.814V131.312V134.082H37.5469H76.6743C83.5886 134.082 89.1937 128.477 89.1937 121.563C89.1937 114.648 83.5886 109.043 76.6743 109.043H37.5469Z" fill="#DC5E35" stroke="#4A090B" stroke-width="5.54069"/>
<rect x="25.4635" y="105.013" width="21.865" height="32.5528" fill="#DC5E35"/>
<circle cx="176.291" cy="120.966" r="13.1176" fill="#DC5E35" stroke="#4A090B" stroke-width="5.54069"/>
<circle cx="99.0427" cy="101.93" r="3.08041" fill="#4A090B"/>
<circle cx="134.981" cy="101.93" r="3.08041" fill="#4A090B"/>
<path d="M113.766 111.814H119.647" stroke="#4A090B" stroke-width="5.54069" stroke-linecap="round"/>
</svg>
