<svg width="238" height="225" viewBox="0 0 238 225" fill="none" xmlns="http://www.w3.org/2000/svg">
<rect x="56.8188" y="43.1213" width="178.31" height="167.539" fill="#FAF1DC" stroke="#4A090B" stroke-width="5"/>
<path d="M197.749 58.5488H185.541" stroke="#4A090B" stroke-width="5"/>
<path d="M58.1711 72.4224H233.057" stroke="#4A090B" stroke-width="5"/>
<path d="M211.586 52.4397L223.203 64.6576" stroke="#4A090B" stroke-width="5"/>
<path d="M223.203 52.4397L211.586 64.6576" stroke="#4A090B" stroke-width="5"/>
<path fill-rule="evenodd" clip-rule="evenodd" d="M75.3511 157.134C75.3629 156.974 75.3689 156.814 75.3689 156.653C75.3689 149.197 62.609 143.153 46.8689 143.153C31.1288 143.153 18.3689 149.197 18.3689 156.653C18.3689 156.814 18.3748 156.974 18.3867 157.134C18.3749 157.318 18.3689 157.503 18.3689 157.689V215.617C18.3689 220.331 22.1906 224.153 26.905 224.153H66.8328C71.5472 224.153 75.3689 220.331 75.3689 215.617V157.689C75.3689 157.503 75.3629 157.318 75.3511 157.134Z" fill="#F2CDB2"/>
<ellipse cx="47.1386" cy="157.111" rx="23.7948" ry="9.83994" fill="#4A090B"/>
<path d="M20.8834 208.472C20.8834 210.468 19.2527 212.119 17.289 211.763C13.2811 211.036 9.5569 209.105 6.63676 206.185C2.85831 202.406 0.735595 197.282 0.735595 191.938C0.735595 186.595 2.85831 181.47 6.63676 177.691C9.5569 174.771 13.2811 172.84 17.289 172.113C19.2527 171.757 20.8834 173.408 20.8834 175.404V175.404C20.8834 177.4 19.2348 178.968 17.3167 179.519C15.2305 180.119 13.3094 181.24 11.7471 182.802C9.32403 185.225 7.96275 188.511 7.96275 191.938C7.96275 195.365 9.32403 198.651 11.7471 201.074C13.3094 202.637 15.2305 203.758 17.3167 204.357C19.2348 204.908 20.8834 206.477 20.8834 208.472V208.472Z" fill="#F2CDB2"/>
<mask id="path-9-outside-1_1065_1537" maskUnits="userSpaceOnUse" x="114.615" y="9.43774" width="60" height="53" fill="black">
<rect fill="white" x="114.615" y="9.43774" width="60" height="53"/>
<path d="M125.067 42.628V38.9381C125.067 38.7881 125.142 38.7131 125.292 38.7131H134.089C134.239 38.7131 134.314 38.6306 134.314 38.4656V29.3534C134.314 29.2034 134.389 29.1284 134.539 29.1284H138.409C138.574 29.1284 138.657 29.2034 138.657 29.3534V38.4656C138.657 38.6306 138.732 38.7131 138.882 38.7131H148.196C148.346 38.7131 148.421 38.7881 148.421 38.9381V42.628C148.421 42.778 148.346 42.853 148.196 42.853H138.882C138.732 42.853 138.657 42.928 138.657 43.078V52.2128C138.657 52.3627 138.574 52.4377 138.409 52.4377H134.539C134.389 52.4377 134.314 52.3627 134.314 52.2128V43.078C134.314 42.928 134.239 42.853 134.089 42.853H125.292C125.142 42.853 125.067 42.778 125.067 42.628ZM151.256 28.8809V25.6635C151.256 25.5135 151.331 25.4385 151.481 25.4385H157.196C157.961 25.4385 158.613 25.1835 159.153 24.6735C159.693 24.1636 159.963 23.5261 159.963 22.7611V20.2187C159.963 20.0687 160.038 19.9937 160.188 19.9937H164.103C164.253 19.9937 164.328 20.0687 164.328 20.2187V52.2128C164.328 52.3627 164.253 52.4377 164.103 52.4377H160.188C160.038 52.4377 159.963 52.3627 159.963 52.2128V30.5009C159.963 30.0659 159.821 29.7284 159.536 29.4884C159.251 29.2484 158.913 29.1284 158.523 29.1284H151.481C151.331 29.1284 151.256 29.0459 151.256 28.8809Z"/>
</mask>
<path d="M125.067 42.628V38.9381C125.067 38.7881 125.142 38.7131 125.292 38.7131H134.089C134.239 38.7131 134.314 38.6306 134.314 38.4656V29.3534C134.314 29.2034 134.389 29.1284 134.539 29.1284H138.409C138.574 29.1284 138.657 29.2034 138.657 29.3534V38.4656C138.657 38.6306 138.732 38.7131 138.882 38.7131H148.196C148.346 38.7131 148.421 38.7881 148.421 38.9381V42.628C148.421 42.778 148.346 42.853 148.196 42.853H138.882C138.732 42.853 138.657 42.928 138.657 43.078V52.2128C138.657 52.3627 138.574 52.4377 138.409 52.4377H134.539C134.389 52.4377 134.314 52.3627 134.314 52.2128V43.078C134.314 42.928 134.239 42.853 134.089 42.853H125.292C125.142 42.853 125.067 42.778 125.067 42.628ZM151.256 28.8809V25.6635C151.256 25.5135 151.331 25.4385 151.481 25.4385H157.196C157.961 25.4385 158.613 25.1835 159.153 24.6735C159.693 24.1636 159.963 23.5261 159.963 22.7611V20.2187C159.963 20.0687 160.038 19.9937 160.188 19.9937H164.103C164.253 19.9937 164.328 20.0687 164.328 20.2187V52.2128C164.328 52.3627 164.253 52.4377 164.103 52.4377H160.188C160.038 52.4377 159.963 52.3627 159.963 52.2128V30.5009C159.963 30.0659 159.821 29.7284 159.536 29.4884C159.251 29.2484 158.913 29.1284 158.523 29.1284H151.481C151.331 29.1284 151.256 29.0459 151.256 28.8809Z" fill="#4A090B"/>
<path d="M135.067 42.628V38.9381H115.067V42.628H135.067ZM135.067 38.9381C135.067 40.4046 134.694 43.3412 132.194 45.8405C129.695 48.3398 126.758 48.7131 125.292 48.7131V28.7131C123.675 28.7131 120.626 29.124 118.052 31.6983C115.478 34.2726 115.067 37.3217 115.067 38.9381H135.067ZM125.292 48.7131H134.089V28.7131H125.292V48.7131ZM134.089 48.7131C135.964 48.7131 139.134 48.1536 141.657 45.378C144.016 42.7831 144.314 39.8663 144.314 38.4656H124.314C124.314 37.23 124.575 34.4369 126.859 31.9245C129.307 29.2314 132.364 28.7131 134.089 28.7131V48.7131ZM144.314 38.4656V29.3534H124.314V38.4656H144.314ZM144.314 29.3534C144.314 30.8199 143.941 33.7564 141.441 36.2557C138.942 38.755 136.006 39.1284 134.539 39.1284V19.1284C132.923 19.1284 129.874 19.5393 127.299 22.1136C124.725 24.6879 124.314 27.737 124.314 29.3534H144.314ZM134.539 39.1284H138.409V19.1284H134.539V39.1284ZM138.409 39.1284C137.173 39.1284 134.38 38.868 131.868 36.5841C129.175 34.1357 128.657 31.0785 128.657 29.3534H148.657C148.657 27.4783 148.097 24.3086 145.321 21.7853C142.727 19.4263 139.81 19.1284 138.409 19.1284V39.1284ZM128.657 29.3534V38.4656H148.657V29.3534H128.657ZM128.657 38.4656C128.657 39.8663 128.954 42.7831 131.313 45.378C133.837 48.1536 137.006 48.7131 138.882 48.7131V28.7131C140.607 28.7131 143.664 29.2314 146.112 31.9245C148.396 34.4369 148.657 37.23 148.657 38.4656H128.657ZM138.882 48.7131H148.196V28.7131H138.882V48.7131ZM148.196 48.7131C146.73 48.7131 143.793 48.3398 141.294 45.8405C138.795 43.3412 138.421 40.4046 138.421 38.9381H158.421C158.421 37.3217 158.01 34.2726 155.436 31.6983C152.862 29.124 149.813 28.7131 148.196 28.7131V48.7131ZM138.421 38.9381V42.628H158.421V38.9381H138.421ZM138.421 42.628C138.421 41.1616 138.795 38.225 141.294 35.7257C143.793 33.2264 146.73 32.853 148.196 32.853V52.853C149.813 52.853 152.862 52.4421 155.436 49.8678C158.01 47.2935 158.421 44.2445 158.421 42.628H138.421ZM148.196 32.853H138.882V52.853H148.196V32.853ZM138.882 32.853C137.265 32.853 134.216 33.2639 131.642 35.8382C129.067 38.4125 128.657 41.4616 128.657 43.078H148.657C148.657 44.5445 148.283 47.481 145.784 49.9803C143.285 52.4796 140.348 52.853 138.882 52.853V32.853ZM128.657 43.078V52.2128H148.657V43.078H128.657ZM128.657 52.2128C128.657 50.4877 129.175 47.4304 131.868 44.9821C134.38 42.6981 137.173 42.4377 138.409 42.4377V62.4377C139.81 62.4377 142.727 62.1398 145.321 59.7809C148.097 57.2576 148.657 54.0878 148.657 52.2128H128.657ZM138.409 42.4377H134.539V62.4377H138.409V42.4377ZM134.539 42.4377C136.006 42.4377 138.942 42.8111 141.441 45.3104C143.941 47.8097 144.314 50.7463 144.314 52.2128H124.314C124.314 53.8292 124.725 56.8783 127.299 59.4526C129.874 62.0269 132.923 62.4377 134.539 62.4377V42.4377ZM144.314 52.2128V43.078H124.314V52.2128H144.314ZM144.314 43.078C144.314 41.4616 143.903 38.4125 141.329 35.8382C138.755 33.2639 135.706 32.853 134.089 32.853V52.853C132.623 52.853 129.686 52.4796 127.187 49.9803C124.688 47.481 124.314 44.5445 124.314 43.078H144.314ZM134.089 32.853H125.292V52.853H134.089V32.853ZM125.292 32.853C126.758 32.853 129.695 33.2264 132.194 35.7257C134.694 38.225 135.067 41.1616 135.067 42.628H115.067C115.067 44.2445 115.478 47.2935 118.052 49.8678C120.626 52.4421 123.675 52.853 125.292 52.853V32.853ZM159.536 29.4884L153.095 37.1375L159.536 29.4884ZM161.256 28.8809V25.6635H141.256V28.8809H161.256ZM161.256 25.6635C161.256 27.13 160.883 30.0665 158.383 32.5658C155.884 35.0651 152.948 35.4385 151.481 35.4385V15.4385C149.865 15.4385 146.816 15.8494 144.241 18.4237C141.667 20.998 141.256 24.0471 141.256 25.6635H161.256ZM151.481 35.4385H157.196V15.4385H151.481V35.4385ZM157.196 35.4385C160.43 35.4385 163.563 34.2642 166.02 31.9437L152.287 17.4034C152.894 16.83 153.678 16.3012 154.619 15.9333C155.555 15.5674 156.448 15.4385 157.196 15.4385V35.4385ZM166.02 31.9437C168.627 29.4817 169.963 26.1844 169.963 22.7611H149.963C149.963 21.9449 150.113 20.9518 150.553 19.913C150.995 18.8677 151.626 18.0277 152.287 17.4034L166.02 31.9437ZM169.963 22.7611V20.2187H149.963V22.7611H169.963ZM169.963 20.2187C169.963 21.6851 169.59 24.6217 167.091 27.121C164.591 29.6203 161.655 29.9937 160.188 29.9937V9.99367C158.572 9.99367 155.523 10.4046 152.949 12.9789C150.374 15.5531 149.963 18.6022 149.963 20.2187H169.963ZM160.188 29.9937H164.103V9.99367H160.188V29.9937ZM164.103 29.9937C162.637 29.9937 159.7 29.6203 157.201 27.121C154.702 24.6217 154.328 21.6851 154.328 20.2187H174.328C174.328 18.6022 173.917 15.5531 171.343 12.9789C168.769 10.4046 165.72 9.99367 164.103 9.99367V29.9937ZM154.328 20.2187V52.2128H174.328V20.2187H154.328ZM154.328 52.2128C154.328 50.7463 154.702 47.8097 157.201 45.3104C159.7 42.8111 162.637 42.4377 164.103 42.4377V62.4377C165.72 62.4377 168.769 62.0269 171.343 59.4526C173.917 56.8783 174.328 53.8292 174.328 52.2128H154.328ZM164.103 42.4377H160.188V62.4377H164.103V42.4377ZM160.188 42.4377C161.655 42.4377 164.591 42.8111 167.091 45.3104C169.59 47.8097 169.963 50.7463 169.963 52.2128H149.963C149.963 53.8292 150.374 56.8783 152.949 59.4526C155.523 62.0269 158.572 62.4377 160.188 62.4377V42.4377ZM169.963 52.2128V30.5009H149.963V52.2128H169.963ZM169.963 30.5009C169.963 27.6649 168.907 24.3065 165.977 21.8393L153.095 37.1375C152.051 36.2587 151.198 35.1223 150.644 33.8112C150.108 32.541 149.963 31.3735 149.963 30.5009H169.963ZM165.977 21.8393C163.8 20.0057 161.151 19.1284 158.523 19.1284V39.1284C156.676 39.1284 154.702 38.4911 153.095 37.1375L165.977 21.8393ZM158.523 19.1284H151.481V39.1284H158.523V19.1284ZM151.481 19.1284C153.206 19.1284 156.264 19.6467 158.712 22.3398C160.996 24.8522 161.256 27.6453 161.256 28.8809H141.256C141.256 30.2816 141.554 33.1984 143.913 35.7933C146.436 38.5689 149.606 39.1284 151.481 39.1284V19.1284Z" fill="#EDD84B" mask="url(#path-9-outside-1_1065_1537)"/>
<mask id="path-11-outside-2_1065_1537" maskUnits="userSpaceOnUse" x="121.929" y="110.789" width="53" height="103" fill="black">
<rect fill="white" x="121.929" y="110.789" width="53" height="103"/>
<path fill-rule="evenodd" clip-rule="evenodd" d="M148.053 115.789C136.387 115.789 126.929 125.247 126.929 136.914V208.161H169.178V136.914C169.178 125.247 159.72 115.789 148.053 115.789Z"/>
</mask>
<path fill-rule="evenodd" clip-rule="evenodd" d="M148.053 115.789C136.387 115.789 126.929 125.247 126.929 136.914V208.161H169.178V136.914C169.178 125.247 159.72 115.789 148.053 115.789Z" fill="#EDD84B"/>
<path d="M126.929 208.161H121.929V213.161H126.929V208.161ZM169.178 208.161V213.161H174.178V208.161H169.178ZM131.929 136.914C131.929 128.009 139.148 120.789 148.053 120.789V110.789C133.625 110.789 121.929 122.486 121.929 136.914H131.929ZM131.929 208.161V136.914H121.929V208.161H131.929ZM126.929 213.161H169.178V203.161H126.929V213.161ZM164.178 136.914V208.161H174.178V136.914H164.178ZM148.053 120.789C156.959 120.789 164.178 128.008 164.178 136.914H174.178C174.178 122.486 162.482 110.789 148.053 110.789V120.789Z" fill="#4A090B" mask="url(#path-11-outside-2_1065_1537)"/>
<mask id="path-13-outside-3_1065_1537" maskUnits="userSpaceOnUse" x="164.179" y="91.2581" width="53" height="122" fill="black">
<rect fill="white" x="164.179" y="91.2581" width="53" height="122"/>
<path fill-rule="evenodd" clip-rule="evenodd" d="M190.303 96.2581C178.637 96.2581 169.179 105.716 169.179 117.383V208.159H211.428V117.383C211.428 105.716 201.97 96.2581 190.303 96.2581Z"/>
</mask>
<path fill-rule="evenodd" clip-rule="evenodd" d="M190.303 96.2581C178.637 96.2581 169.179 105.716 169.179 117.383V208.159H211.428V117.383C211.428 105.716 201.97 96.2581 190.303 96.2581Z" fill="#DC5E35"/>
<path d="M169.179 208.159H164.179V213.159H169.179V208.159ZM211.428 208.159V213.159H216.428V208.159H211.428ZM174.179 117.383C174.179 108.477 181.398 101.258 190.303 101.258V91.2581C175.875 91.2581 164.179 102.954 164.179 117.383H174.179ZM174.179 208.159V117.383H164.179V208.159H174.179ZM169.179 213.159H211.428V203.159H169.179V213.159ZM206.428 117.383V208.159H216.428V117.383H206.428ZM190.303 101.258C199.209 101.258 206.428 108.477 206.428 117.383H216.428C216.428 102.954 204.732 91.2581 190.303 91.2581V101.258Z" fill="#4A090B" mask="url(#path-13-outside-3_1065_1537)"/>
</svg>
