<svg width="52" height="51" viewBox="0 0 52 51" fill="none" xmlns="http://www.w3.org/2000/svg">
<path d="M21.332 2.75325C23.6824 -0.618092 28.6692 -0.626174 31.0306 2.73753C32.4611 4.77531 35.0141 5.69982 37.4177 5.05054C41.3854 3.9788 45.2106 7.17803 44.8574 11.2727C44.6434 13.7532 46.0048 16.1025 48.2635 17.1501C51.9918 18.8794 52.8657 23.789 49.9631 26.6986C48.2047 28.4613 47.7375 31.136 48.7943 33.3904C50.5388 37.1116 48.0524 41.4343 43.9587 41.7975C41.4786 42.0175 39.4015 43.7662 38.762 46.1724C37.7063 50.1444 33.023 51.8575 29.6536 49.5043C27.6124 48.0787 24.8972 48.0831 22.8606 49.5153C19.4988 51.8795 14.81 50.1815 13.7415 46.213C13.0941 43.8088 11.0114 42.0669 8.53061 41.8549C4.43571 41.505 1.93533 37.1904 3.66769 33.4636C4.71718 31.2058 4.24135 28.5326 2.47724 26.7756C-0.434729 23.8754 0.423252 18.963 4.14591 17.2216C6.40114 16.1667 7.75493 13.813 7.5329 11.3332C7.1664 7.2397 10.9813 4.02808 14.9524 5.08696C17.3581 5.72844 19.908 4.79565 21.332 2.75325Z" fill="#49090B"/>
</svg>
