<svg width="120" height="32" viewBox="0 0 120 32" fill="none" xmlns="http://www.w3.org/2000/svg">
<g clip-path="url(#clip0_324_240)">
<path d="M77.7446 32C70.9195 32 67.9617 28.9022 66.8063 27.0548C65.4878 24.9035 65.3167 22.0208 65.3167 19.7351V4.79193C65.3167 4.64672 65.3167 4.50151 65.3167 4.35361C65.3408 2.79664 65.3648 1.32303 62.9579 1.24773H62.193V0H74.5326V1.2558H74.3133C73.3933 1.2558 72.6927 1.49244 72.1952 1.98723C71.6042 2.57613 71.3046 3.52 71.3046 4.79462V21.2437C71.3046 26.8101 73.7116 29.6336 78.4586 29.6336C81.133 29.6336 83.4009 28.8269 84.8157 27.3882C87.0996 25.0165 87.2815 21.9402 87.2815 18.1647V4.74353C87.2815 2.76437 87.0862 1.24773 84.6071 1.24773H83.9652V0H93.0582V1.24773H92.6757C90.8518 1.24773 89.7954 1.8205 89.7954 4.74353V18.3771C89.8248 27.5442 85.8721 32 77.7446 32Z" fill="#E61E28"/>
<path d="M108.294 31.3358H95.9438V30.0934H96.1524C99.0488 30.0101 99.1959 29.0824 99.1959 26.4094V4.77311C99.1959 1.99261 99.0889 1.33378 96.2728 1.25042H96.0642V0H108.663C116.106 0 120 4.38588 120 8.71798C120 13.6766 115.603 17.5597 109.992 17.5597L107.214 17.522V15.3277C107.214 15.3277 108.265 15.3277 108.65 15.3277C112.103 15.3277 113.881 12.7032 113.881 8.79328C113.881 4.72202 111.284 1.98723 107.422 1.98723H104.938V26.923C104.938 29.5422 105.409 30.0182 108.086 30.1042H108.294V31.3358Z" fill="#E61E28"/>
<path d="M62.998 31.3358H54.1003L44.5795 16.7771V14.9997L44.772 14.9808C48.1123 14.6259 51.244 12.6924 51.244 8.32807C51.244 4.66824 48.6258 2.11092 44.8736 2.11092H42.3035V26.9042C42.3035 29.5933 43.5364 29.8622 45.2801 29.9563H45.4861V31.3277H33.4112V30.0692H33.6144C36.23 29.924 36.6044 29.2625 36.6044 26.9096V4.4316C36.5081 1.6484 36.337 1.29076 33.6225 1.25042H33.4112V0H46.4168C51.3778 0 57.1705 2.19429 57.1705 8.37378C57.1705 12.0578 54.9481 14.7012 50.5648 16.2339L55.507 23.5697C56.0419 24.4007 58.0263 26.8155 58.9142 27.7997C60.6044 29.6309 61.8213 29.881 62.6263 30.0477L62.998 30.1284V31.3358Z" fill="#E61E28"/>
<path d="M31.2663 31.3358H19.4829V30.1176H19.6916C21.1304 30.0666 22.0209 29.7519 22.0209 28.3375C22.0209 27.7055 21.5289 26.4551 21.2668 25.8017L19.3519 21.1818H8.7105L6.75284 25.6645C6.10296 27.1435 5.91576 27.6787 5.91576 28.3697C5.91576 29.3889 5.91576 30.0612 8.28527 30.1042H8.49654V31.3331H0V30.1176H0.211277C1.89347 30.0773 2.77067 29.2195 3.95543 26.4363L15.4874 0H16.6695L16.7257 0.131765L28.2844 27.5012C29.1161 29.5395 29.314 30.0235 31.0604 30.0961H31.2663V31.3358ZM9.58235 19.0655H18.4881L14.1368 8.4437L9.58235 19.0655Z" fill="#E61E28"/>
</g>
<defs>
<clipPath id="clip0_324_240">
<rect width="120" height="32" fill="white"/>
</clipPath>
</defs>
</svg>
