<svg width="1440" height="43" viewBox="0 0 1440 43" fill="none" xmlns="http://www.w3.org/2000/svg">
<path fill-rule="evenodd" clip-rule="evenodd" d="M1440 0H0V42.9047C0 28.3218 11.8218 16.5 26.4047 16.5C35.4216 16.5 43.3828 21.0197 48.1465 27.9172C52.9103 21.0197 60.8715 16.5 69.8884 16.5C79.8295 16.5 88.4874 21.9936 92.992 30.1106C97.4965 21.9936 106.154 16.5 116.096 16.5C125.112 16.5 133.074 21.0197 137.837 27.9171C142.601 21.0197 150.562 16.5 159.579 16.5C169.52 16.5 178.177 21.9931 182.682 30.1094C187.187 21.9931 195.844 16.5 205.785 16.5C214.802 16.5 222.763 21.0197 227.527 27.9171C232.291 21.0197 240.252 16.5 249.269 16.5C259.209 16.5 267.867 21.9931 272.372 30.1094C276.876 21.9931 285.534 16.5 295.474 16.5C304.491 16.5 312.453 21.0197 317.216 27.9171C321.98 21.0197 329.941 16.5 338.958 16.5C348.899 16.5 357.557 21.9937 362.062 30.1107C366.566 21.9937 375.224 16.5 385.165 16.5C394.182 16.5 402.143 21.0197 406.907 27.9171C411.671 21.0197 419.632 16.5 428.649 16.5C438.59 16.5 447.247 21.9931 451.752 30.1094C456.257 21.9931 464.914 16.5 474.855 16.5C483.872 16.5 491.833 21.0196 496.597 27.9171C501.36 21.0196 509.322 16.5 518.338 16.5C528.28 16.5 536.938 21.9937 541.442 30.1107C545.947 21.9937 554.605 16.5 564.546 16.5C573.308 16.5 581.073 20.7678 585.876 27.3381C590.679 20.7678 598.444 16.5 607.206 16.5C617.147 16.5 625.805 21.9936 630.31 30.1106C634.815 21.9936 643.472 16.5 653.414 16.5C662.43 16.5 670.392 21.0197 675.155 27.9172C679.919 21.0197 687.88 16.5 696.897 16.5C706.838 16.5 715.496 21.9936 720.001 30.1106C724.505 21.9936 733.163 16.5 743.104 16.5C752.121 16.5 760.082 21.0196 764.846 27.917C769.61 21.0196 777.571 16.5 786.588 16.5C796.528 16.5 805.185 21.9926 809.69 30.1083C814.195 21.9926 822.852 16.5 832.792 16.5C841.809 16.5 849.771 21.0197 854.534 27.9171C859.298 21.0197 867.259 16.5 876.276 16.5C886.217 16.5 894.875 21.9937 899.38 30.1107C903.884 21.9937 912.542 16.5 922.483 16.5C931.5 16.5 939.461 21.0197 944.225 27.9171C948.989 21.0197 956.95 16.5 965.967 16.5C975.908 16.5 984.566 21.9937 989.071 30.1107C993.575 21.9937 1002.23 16.5 1012.17 16.5C1021.19 16.5 1029.15 21.0197 1033.92 27.9172C1038.68 21.0197 1046.64 16.5 1055.66 16.5C1065.6 16.5 1074.26 21.9931 1078.76 30.1094C1083.27 21.9931 1091.92 16.5 1101.86 16.5C1110.63 16.5 1118.39 20.7683 1123.19 27.3391C1128 20.7683 1135.76 16.5 1144.53 16.5C1154.47 16.5 1163.12 21.9937 1167.63 30.1107C1172.13 21.9937 1180.79 16.5 1190.73 16.5C1199.75 16.5 1207.71 21.0197 1212.47 27.9171C1217.24 21.0197 1225.2 16.5 1234.22 16.5C1244.16 16.5 1252.81 21.9931 1257.32 30.1095C1261.82 21.9931 1270.48 16.5 1280.42 16.5C1289.44 16.5 1297.4 21.0197 1302.16 27.9171C1306.93 21.0197 1314.89 16.5 1323.91 16.5C1333.85 16.5 1342.5 21.993 1347.01 30.1091C1351.51 21.993 1360.17 16.5 1370.11 16.5C1379.13 16.5 1387.09 21.0197 1391.85 27.9172C1396.62 21.0197 1404.58 16.5 1413.6 16.5C1428.18 16.5 1440 28.3218 1440 42.9047V0Z" fill="#FAF1DC"/>
</svg>
