<svg width="413" height="24" viewBox="0 0 413 24" fill="none" xmlns="http://www.w3.org/2000/svg">
<path fillRrule="evenodd" clipRule="evenodd" d="M413 0H0V23.7778C0 11.75 9.75049 2 21.7778 2C29.2144 2 35.7808 5.72754 39.71 11.4165C43.6387 5.72754 50.2051 2 57.6416 2C65.8408 2 72.9814 6.53125 76.6968 13.2256C80.4121 6.53125 87.5527 2 95.752 2C103.189 2 109.755 5.72754 113.684 11.4165C117.613 5.72754 124.179 2 131.616 2C139.815 2 146.955 6.53076 150.67 13.2246C154.386 6.53076 161.526 2 169.725 2C177.162 2 183.728 5.72754 187.657 11.4165C191.586 5.72754 198.152 2 205.589 2C213.788 2 220.928 6.53076 224.644 13.2246C228.359 6.53076 235.5 2 243.698 2C251.135 2 257.701 5.72754 261.63 11.4165C265.56 5.72754 272.125 2 279.562 2C287.762 2 294.902 6.53125 298.618 13.2256C302.333 6.53125 309.474 2 317.673 2C325.109 2 331.676 5.72754 335.605 11.4165C339.534 5.72754 346.1 2 353.537 2C361.735 2 368.876 6.53076 372.591 13.2246C376.307 6.53076 383.447 2 391.646 2C402.203 2 411.005 9.51123 413 19.481V0Z" fill="#FAF1DC"/>
</svg>
