<svg width="432" height="438" viewBox="0 0 432 438" fill="none" xmlns="http://www.w3.org/2000/svg">
<mask id="path-1-outside-1_1387_4" maskUnits="userSpaceOnUse" x="327.707" y="206.24" width="104" height="42" fill="black">
<rect fill="white" x="327.707" y="206.24" width="104" height="42"/>
<path fill-rule="evenodd" clip-rule="evenodd" d="M401.568 226.948C402.352 228.504 403.964 229.487 405.706 229.487C411.746 229.487 417.538 231.097 421.809 233.961C424.374 235.681 426.264 237.77 427.364 240.041C428.543 242.473 426.289 244.762 423.586 244.762H405.706L382.933 244.762C382.933 244.762 382.932 244.762 382.932 244.761C382.932 244.761 382.932 244.76 382.931 244.76H376.826L347.944 244.76C347.943 244.76 347.942 244.759 347.942 244.758C347.942 244.757 347.941 244.756 347.94 244.756L336.172 244.756C333.47 244.756 331.227 242.541 331.795 239.899C332.714 235.631 334.834 231.68 337.949 228.544C342.22 224.244 348.012 221.828 354.052 221.828C354.778 221.828 355.47 221.504 355.923 220.937C356.081 220.74 356.24 220.544 356.402 220.351C361.819 213.877 369.165 210.24 376.826 210.24C384.486 210.24 391.833 213.877 397.25 220.351C398.922 222.349 400.368 224.567 401.568 226.948Z"/>
</mask>
<path fill-rule="evenodd" clip-rule="evenodd" d="M401.568 226.948C402.352 228.504 403.964 229.487 405.706 229.487C411.746 229.487 417.538 231.097 421.809 233.961C424.374 235.681 426.264 237.77 427.364 240.041C428.543 242.473 426.289 244.762 423.586 244.762H405.706L382.933 244.762C382.933 244.762 382.932 244.762 382.932 244.761C382.932 244.761 382.932 244.76 382.931 244.76H376.826L347.944 244.76C347.943 244.76 347.942 244.759 347.942 244.758C347.942 244.757 347.941 244.756 347.94 244.756L336.172 244.756C333.47 244.756 331.227 242.541 331.795 239.899C332.714 235.631 334.834 231.68 337.949 228.544C342.22 224.244 348.012 221.828 354.052 221.828C354.778 221.828 355.47 221.504 355.923 220.937C356.081 220.74 356.24 220.544 356.402 220.351C361.819 213.877 369.165 210.24 376.826 210.24C384.486 210.24 391.833 213.877 397.25 220.351C398.922 222.349 400.368 224.567 401.568 226.948Z" fill="#FAF0D4"/>
<path d="M405.706 244.762V248.024V244.762ZM376.826 244.76V248.022V244.76ZM337.949 228.544L340.263 230.843H340.263L337.949 228.544ZM356.402 220.351L358.904 222.444L358.904 222.444L356.402 220.351ZM397.25 220.351L399.752 218.258L399.752 218.258L397.25 220.351ZM355.923 220.937L353.373 218.902L355.923 220.937ZM336.172 244.756L336.172 248.019L336.172 244.756ZM331.795 239.899L328.606 239.213L331.795 239.899ZM347.94 244.756L347.94 241.494L347.94 244.756ZM347.944 244.76V248.022V244.76ZM427.364 240.041L424.429 241.463L427.364 240.041ZM382.933 244.762V241.5V244.762ZM401.568 226.948L398.654 228.417L401.568 226.948ZM405.706 232.749C411.214 232.749 416.347 234.226 419.992 236.67L423.626 231.252C418.73 227.967 412.278 226.225 405.706 226.225V232.749ZM419.992 236.67C422.168 238.13 423.624 239.804 424.429 241.463L430.3 238.618C428.903 235.735 426.58 233.233 423.626 231.252L419.992 236.67ZM423.586 241.5H405.706V248.024H423.586V241.5ZM405.706 241.5L382.933 241.5L382.933 248.024L405.706 248.024V241.5ZM376.826 248.022H382.931V241.498H376.826V248.022ZM347.944 248.022L376.826 248.022V241.498L347.944 241.498V248.022ZM347.94 241.494L336.172 241.494L336.172 248.019L347.94 248.019L347.94 241.494ZM334.985 240.586C335.774 236.921 337.593 233.531 340.263 230.843L335.634 226.245C332.075 229.829 329.655 234.341 328.606 239.213L334.985 240.586ZM340.263 230.843C343.924 227.157 348.885 225.09 354.052 225.09V218.566C347.14 218.566 340.515 221.331 335.634 226.245L340.263 230.843ZM353.9 218.258C353.722 218.47 353.546 218.685 353.373 218.902L358.473 222.972C358.615 222.794 358.758 222.618 358.904 222.444L353.9 218.258ZM376.826 206.978C368.093 206.978 359.865 211.129 353.9 218.258L358.904 222.444C363.772 216.626 370.237 213.503 376.826 213.503V206.978ZM399.752 218.258C393.786 211.129 385.558 206.978 376.826 206.978V213.503C383.414 213.503 389.879 216.626 394.748 222.444L399.752 218.258ZM404.481 225.48C403.174 222.887 401.592 220.457 399.752 218.258L394.748 222.444C396.252 224.242 397.562 226.248 398.654 228.417L404.481 225.48ZM354.052 225.09C355.742 225.09 357.384 224.337 358.473 222.972L353.373 218.902C353.557 218.672 353.814 218.566 354.052 218.566V225.09ZM336.172 241.494C335.701 241.494 335.334 241.298 335.139 241.089C335.047 240.991 335.004 240.904 334.986 240.842C334.97 240.788 334.958 240.71 334.985 240.586L328.606 239.213C327.497 244.365 331.911 248.019 336.172 248.019L336.172 241.494ZM351.204 244.758C351.204 242.956 349.743 241.494 347.94 241.494L347.94 248.019C346.139 248.019 344.68 246.559 344.68 244.758H351.204ZM386.195 244.761C386.195 242.959 384.734 241.498 382.931 241.498V248.022C381.13 248.022 379.67 246.562 379.67 244.761H386.195ZM347.944 241.498C349.745 241.498 351.204 242.958 351.204 244.758H344.68C344.68 246.561 346.141 248.022 347.944 248.022V241.498ZM424.429 241.463C424.446 241.5 424.408 241.427 424.429 241.296C424.447 241.184 424.488 241.15 424.458 241.186C424.424 241.225 424.333 241.308 424.166 241.382C424.003 241.453 423.804 241.5 423.586 241.5V248.024C425.815 248.024 427.984 247.091 429.404 245.441C430.912 243.687 431.516 241.127 430.3 238.618L424.429 241.463ZM382.933 241.5C384.734 241.5 386.195 242.96 386.195 244.761H379.67C379.67 246.564 381.132 248.024 382.933 248.024L382.933 241.5ZM405.706 226.225C405.183 226.225 404.705 225.924 404.481 225.48L398.654 228.417C399.999 231.084 402.745 232.749 405.706 232.749V226.225Z" fill="#4A090B" mask="url(#path-1-outside-1_1387_4)"/>
<mask id="path-3-outside-2_1387_4" maskUnits="userSpaceOnUse" x="327.8" y="7.52072" width="104" height="42" fill="black">
<rect fill="white" x="327.8" y="7.52072" width="104" height="42"/>
<path fill-rule="evenodd" clip-rule="evenodd" d="M401.661 28.2287C402.445 29.7843 404.057 30.7675 405.799 30.7675C411.839 30.7675 417.632 32.3768 421.903 35.2414C424.467 36.9616 426.357 39.0498 427.458 41.3209C428.636 43.7529 426.382 46.0425 423.679 46.0425H405.799L383.027 46.0425C383.026 46.0425 383.026 46.042 383.026 46.0415C383.026 46.0409 383.025 46.0405 383.025 46.0405H376.919L348.037 46.0405C348.036 46.0405 348.035 46.0396 348.035 46.0385C348.035 46.0375 348.034 46.0366 348.033 46.0366L336.265 46.0366C333.563 46.0366 331.32 43.8216 331.889 41.1797C332.808 36.9114 334.927 32.9602 338.042 29.824C342.313 25.5242 348.106 23.1086 354.145 23.1086C354.872 23.1086 355.563 22.7848 356.016 22.2172C356.174 22.0199 356.333 21.8246 356.495 21.6313C361.912 15.1576 369.259 11.5207 376.919 11.5207C384.579 11.5207 391.926 15.1576 397.343 21.6313C399.015 23.6296 400.461 25.8477 401.661 28.2287Z"/>
</mask>
<path fill-rule="evenodd" clip-rule="evenodd" d="M401.661 28.2287C402.445 29.7843 404.057 30.7675 405.799 30.7675C411.839 30.7675 417.632 32.3768 421.903 35.2414C424.467 36.9616 426.357 39.0498 427.458 41.3209C428.636 43.7529 426.382 46.0425 423.679 46.0425H405.799L383.027 46.0425C383.026 46.0425 383.026 46.042 383.026 46.0415C383.026 46.0409 383.025 46.0405 383.025 46.0405H376.919L348.037 46.0405C348.036 46.0405 348.035 46.0396 348.035 46.0385C348.035 46.0375 348.034 46.0366 348.033 46.0366L336.265 46.0366C333.563 46.0366 331.32 43.8216 331.889 41.1797C332.808 36.9114 334.927 32.9602 338.042 29.824C342.313 25.5242 348.106 23.1086 354.145 23.1086C354.872 23.1086 355.563 22.7848 356.016 22.2172C356.174 22.0199 356.333 21.8246 356.495 21.6313C361.912 15.1576 369.259 11.5207 376.919 11.5207C384.579 11.5207 391.926 15.1576 397.343 21.6313C399.015 23.6296 400.461 25.8477 401.661 28.2287Z" fill="#FAF0D4"/>
<path d="M405.799 46.0425V49.3047V46.0425ZM376.919 46.0405V49.3026V46.0405ZM338.042 29.824L340.357 32.1229L338.042 29.824ZM356.495 21.6313L358.997 23.7247L358.997 23.7247L356.495 21.6313ZM397.343 21.6313L399.845 19.5379L399.845 19.5379L397.343 21.6313ZM348.033 46.0366V42.7744V46.0366ZM348.037 46.0405V49.3026V46.0405ZM427.458 41.3209L424.522 42.7436L427.458 41.3209ZM383.027 46.0425V42.7803V46.0425ZM401.661 28.2287L398.748 29.6969L401.661 28.2287ZM405.799 34.0297C411.307 34.0297 416.44 35.5058 420.085 37.9506L423.72 32.5322C418.823 29.2478 412.371 27.5053 405.799 27.5053V34.0297ZM420.085 37.9506C422.261 39.4102 423.718 41.084 424.522 42.7436L430.393 39.8983C428.996 37.0156 426.673 34.513 423.72 32.5322L420.085 37.9506ZM423.679 42.7803H405.799V49.3047H423.679V42.7803ZM405.799 42.7803L383.027 42.7803L383.027 49.3047L405.799 49.3047V42.7803ZM376.919 49.3026H383.025V42.7783H376.919V49.3026ZM348.037 49.3026L376.919 49.3026V42.7783L348.037 42.7783V49.3026ZM348.033 42.7744L336.265 42.7744L336.265 49.2988L348.033 49.2988V42.7744ZM335.078 41.8664C335.867 38.2011 337.686 34.8114 340.357 32.1229L335.728 27.5251C332.168 31.109 329.748 35.6216 328.7 40.4931L335.078 41.8664ZM340.357 32.1229C344.017 28.4373 348.978 26.3708 354.145 26.3708V19.8464C347.233 19.8464 340.609 22.6111 335.728 27.5251L340.357 32.1229ZM353.993 19.5379C353.815 19.7506 353.64 19.9655 353.467 20.1824L358.566 24.2519C358.708 24.0743 358.852 23.8985 358.997 23.7247L353.993 19.5379ZM376.919 8.25853C368.187 8.25853 359.958 12.4088 353.993 19.5379L358.997 23.7247C363.865 17.9064 370.331 14.7829 376.919 14.7829V8.25853ZM399.845 19.5379C393.88 12.4088 385.651 8.25853 376.919 8.25853V14.7829C383.508 14.7829 389.973 17.9064 394.841 23.7247L399.845 19.5379ZM404.574 26.7605C403.267 24.1668 401.685 21.7372 399.845 19.5379L394.841 23.7247C396.345 25.522 397.655 27.5286 398.748 29.6969L404.574 26.7605ZM354.145 26.3708C355.836 26.3708 357.477 25.6172 358.566 24.2519L353.467 20.1824C353.65 19.9524 353.908 19.8464 354.145 19.8464V26.3708ZM336.265 42.7744C335.794 42.7744 335.427 42.5785 335.232 42.3696C335.14 42.2712 335.098 42.1841 335.079 42.122C335.063 42.0678 335.051 41.9904 335.078 41.8664L328.7 40.4931C327.59 45.6457 332.004 49.2988 336.265 49.2988L336.265 42.7744ZM351.297 46.0385C351.297 44.2358 349.836 42.7744 348.033 42.7744V49.2988C346.233 49.2988 344.773 47.8391 344.773 46.0385H351.297ZM386.288 46.0415C386.288 44.2393 384.827 42.7783 383.025 42.7783V49.3026C381.224 49.3026 379.764 47.8426 379.764 46.0415H386.288ZM348.037 42.7783C349.838 42.7783 351.297 44.2379 351.297 46.0385H344.773C344.773 47.8412 346.234 49.3026 348.037 49.3026V42.7783ZM424.522 42.7436C424.54 42.7801 424.501 42.7074 424.522 42.5763C424.54 42.4642 424.581 42.4308 424.551 42.4661C424.517 42.5056 424.426 42.5885 424.259 42.6619C424.097 42.7336 423.897 42.7803 423.679 42.7803V49.3047C425.909 49.3047 428.077 48.371 429.497 46.7213C431.006 44.9675 431.609 42.4074 430.393 39.8983L424.522 42.7436ZM383.027 42.7803C384.827 42.7803 386.288 44.24 386.288 46.0415H379.764C379.764 47.844 381.225 49.3047 383.027 49.3047L383.027 42.7803ZM405.799 27.5053C405.277 27.5053 404.798 27.2048 404.574 26.7605L398.748 29.6969C400.092 32.3638 402.838 34.0297 405.799 34.0297V27.5053Z" fill="#4A090B" mask="url(#path-3-outside-2_1387_4)"/>
<mask id="path-5-outside-3_1387_4" maskUnits="userSpaceOnUse" x="-0.128906" y="178.783" width="115" height="46" fill="black">
<rect fill="white" x="-0.128906" y="178.783" width="115" height="46"/>
<path fill-rule="evenodd" clip-rule="evenodd" d="M86.1265 221.113C86.1263 221.113 86.1262 221.113 86.1262 221.114C86.1262 221.114 86.126 221.114 86.1258 221.114H54.0538L21.9823 221.114C21.9819 221.114 21.9815 221.114 21.9815 221.113C21.9815 221.113 21.9811 221.112 21.9807 221.112L8.37243 221.112C5.66994 221.112 3.43183 218.902 3.9448 216.248C4.90019 211.307 7.29839 206.722 10.8857 203.11C15.628 198.335 22.06 195.653 28.7667 195.653C29.5716 195.653 30.3384 195.294 30.8404 194.665C31.0163 194.444 31.1946 194.226 31.3753 194.01C37.39 186.822 45.5477 182.783 54.0538 182.783C62.56 182.783 70.7177 186.822 76.7324 194.01C78.5877 196.227 80.1922 198.688 81.5241 201.33C82.3958 203.059 84.1884 204.152 86.1248 204.152C92.8315 204.152 99.2634 205.939 104.006 209.12C107.037 211.153 109.22 213.65 110.4 216.361C111.478 218.839 109.222 221.113 106.519 221.113H86.1265Z"/>
</mask>
<path fill-rule="evenodd" clip-rule="evenodd" d="M86.1265 221.113C86.1263 221.113 86.1262 221.113 86.1262 221.114C86.1262 221.114 86.126 221.114 86.1258 221.114H54.0538L21.9823 221.114C21.9819 221.114 21.9815 221.114 21.9815 221.113C21.9815 221.113 21.9811 221.112 21.9807 221.112L8.37243 221.112C5.66994 221.112 3.43183 218.902 3.9448 216.248C4.90019 211.307 7.29839 206.722 10.8857 203.11C15.628 198.335 22.06 195.653 28.7667 195.653C29.5716 195.653 30.3384 195.294 30.8404 194.665C31.0163 194.444 31.1946 194.226 31.3753 194.01C37.39 186.822 45.5477 182.783 54.0538 182.783C62.56 182.783 70.7177 186.822 76.7324 194.01C78.5877 196.227 80.1922 198.688 81.5241 201.33C82.3958 203.059 84.1884 204.152 86.1248 204.152C92.8315 204.152 99.2634 205.939 104.006 209.12C107.037 211.153 109.22 213.65 110.4 216.361C111.478 218.839 109.222 221.113 106.519 221.113H86.1265Z" fill="#FAF0D4"/>
<path d="M54.0538 221.114V224.376V221.114ZM10.8857 203.11L13.2002 205.409L10.8857 203.11ZM31.3753 194.01L28.8734 191.917L28.8734 191.917L31.3753 194.01ZM76.7324 194.01L79.2343 191.917V191.917L76.7324 194.01ZM30.8404 194.665L33.3905 196.699L30.8404 194.665ZM21.9807 221.112V217.85V221.112ZM21.9823 221.114V224.376V221.114ZM81.5241 201.33L78.6112 202.799L81.5241 201.33ZM3.9448 216.248L0.741918 215.629L3.9448 216.248ZM54.0538 224.376H86.1258V217.852H54.0538V224.376ZM21.9823 224.376L54.0538 224.376V217.852L21.9823 217.852V224.376ZM21.9807 217.85L8.37243 217.85L8.37243 224.374L21.9807 224.374V217.85ZM7.14768 216.868C7.98151 212.555 10.074 208.556 13.2002 205.409L8.5712 200.811C4.52274 204.887 1.81887 210.059 0.741918 215.629L7.14768 216.868ZM13.2002 205.409C17.3325 201.249 22.9323 198.915 28.7667 198.915V192.391C21.1877 192.391 13.9236 195.422 8.5712 200.811L13.2002 205.409ZM28.8734 191.917C28.6763 192.152 28.4819 192.39 28.2903 192.631L33.3905 196.699C33.5507 196.499 33.7129 196.3 33.8772 196.104L28.8734 191.917ZM54.0538 179.521C44.4758 179.521 35.4365 184.073 28.8734 191.917L33.8772 196.104C39.3435 189.571 46.6197 186.046 54.0538 186.046V179.521ZM79.2343 191.917C72.6712 184.073 63.6319 179.521 54.0538 179.521V186.046C61.488 186.046 68.7642 189.571 74.2305 196.104L79.2343 191.917ZM84.4369 199.861C82.9979 197.007 81.2576 194.335 79.2343 191.917L74.2305 196.104C75.9177 198.12 77.3864 200.37 78.6112 202.799L84.4369 199.861ZM86.1248 207.414C92.2997 207.414 98.0722 209.068 102.189 211.829L105.823 206.411C100.455 202.81 93.3632 200.89 86.1248 200.89V207.414ZM102.189 211.829C104.808 213.586 106.524 215.629 107.408 217.663L113.391 215.06C111.916 211.67 109.267 208.72 105.823 206.411L102.189 211.829ZM106.519 217.851H86.1265V224.375H106.519V217.851ZM28.7667 198.915C30.5358 198.915 32.2521 198.126 33.3905 196.699L28.2903 192.631C28.4248 192.462 28.6074 192.391 28.7667 192.391V198.915ZM107.408 217.663C107.429 217.711 107.401 217.663 107.419 217.566C107.433 217.485 107.461 217.474 107.42 217.52C107.376 217.571 107.277 217.657 107.108 217.731C106.942 217.804 106.739 217.851 106.519 217.851V224.375C108.747 224.375 110.906 223.447 112.334 221.813C113.84 220.088 114.486 217.575 113.391 215.06L107.408 217.663ZM25.2437 221.113C25.2437 219.311 23.7828 217.85 21.9807 217.85V224.374C20.1795 224.374 18.7193 222.914 18.7193 221.113H25.2437ZM21.9823 217.852C23.7835 217.852 25.2437 219.312 25.2437 221.113H18.7193C18.7193 222.915 20.1802 224.376 21.9823 224.376V217.852ZM78.6112 202.799C80.0432 205.639 82.9693 207.414 86.1248 207.414V200.89C85.4074 200.89 84.7485 200.479 84.4369 199.861L78.6112 202.799ZM89.3884 221.114C89.3884 222.912 87.9312 224.375 86.1265 224.375V217.851C84.3214 217.851 82.864 219.315 82.864 221.114H89.3884ZM8.37243 217.85C7.90266 217.85 7.53208 217.656 7.32707 217.438C7.15099 217.251 7.10695 217.078 7.14768 216.868L0.741918 215.629C-0.243106 220.724 4.08118 224.374 8.37243 224.374L8.37243 217.85ZM82.864 221.114C82.864 219.325 84.3114 217.852 86.1258 217.852V224.376C87.9406 224.376 89.3884 222.902 89.3884 221.114H82.864Z" fill="#4A090B" mask="url(#path-5-outside-3_1387_4)"/>
<path d="M16.9976 334.014C37.081 322.158 101.787 306.752 145.854 358.127" stroke="#4A090B" stroke-width="3.26219" stroke-linecap="round"/>
<path d="M417.43 318.751C403.796 306.952 341.499 306.747 329.351 363.018" stroke="#4A090B" stroke-width="3.26219" stroke-linecap="round"/>
<path d="M339.137 336.171C325.536 324.174 289.042 312.258 251.873 360.572" stroke="#4A090B" stroke-width="3.26219" stroke-linecap="round"/>
<path d="M167.059 369.356C153.492 357.442 107.214 342.571 72.4552 382.591" stroke="#4A090B" stroke-width="3.26219" stroke-linecap="round"/>
<mask id="path-11-inside-4_1387_4" fill="white">
<path fill-rule="evenodd" clip-rule="evenodd" d="M293.274 419.407L274.54 130.287H176.861L158.126 419.407H203.684V377.173C203.684 364.973 213.574 355.083 225.774 355.083C237.974 355.083 247.864 364.973 247.864 377.173V419.407H293.274Z"/>
</mask>
<path fill-rule="evenodd" clip-rule="evenodd" d="M293.274 419.407L274.54 130.287H176.861L158.126 419.407H203.684V377.173C203.684 364.973 213.574 355.083 225.774 355.083C237.974 355.083 247.864 364.973 247.864 377.173V419.407H293.274Z" fill="#FAF0D4"/>
<path d="M274.54 130.287L277.795 130.077L277.597 127.025H274.54V130.287ZM293.274 419.407V422.67H296.754L296.529 419.196L293.274 419.407ZM176.861 130.287V127.025H173.803L173.606 130.077L176.861 130.287ZM158.126 419.407L154.871 419.196L154.646 422.67H158.126V419.407ZM203.684 419.407V422.67H206.946V419.407H203.684ZM247.864 419.407H244.602V422.67H247.864V419.407ZM271.284 130.498L290.019 419.618L296.529 419.196L277.795 130.077L271.284 130.498ZM176.861 133.55H274.54V127.025H176.861V133.55ZM161.382 419.618L180.116 130.498L173.606 130.077L154.871 419.196L161.382 419.618ZM203.684 416.145H158.126V422.67H203.684V416.145ZM206.946 419.407V377.173H200.422V419.407H206.946ZM206.946 377.173C206.946 366.775 215.376 358.345 225.774 358.345V351.821C211.772 351.821 200.422 363.172 200.422 377.173H206.946ZM225.774 358.345C236.172 358.345 244.602 366.775 244.602 377.173H251.126C251.126 363.172 239.776 351.821 225.774 351.821V358.345ZM244.602 377.173V419.407H251.126V377.173H244.602ZM293.274 416.145H247.864V422.67H293.274V416.145Z" fill="#4A090B" mask="url(#path-11-inside-4_1387_4)"/>
<rect x="248.613" y="190.94" width="27.7286" height="10.6021" fill="#FAF0D4" stroke="#4A090B" stroke-width="3.26219"/>
<rect x="176.028" y="167.287" width="27.7286" height="11.4177" fill="#FAF0D4" stroke="#4A090B" stroke-width="3.26219"/>
<rect x="240.456" y="201.541" width="27.7286" height="11.4177" fill="#FAF0D4" stroke="#4A090B" stroke-width="3.26219"/>
<rect x="166.244" y="321.424" width="27.7286" height="11.4177" fill="#FAF0D4" stroke="#4A090B" stroke-width="3.26219"/>
<rect x="181.737" y="333.661" width="26.913" height="10.6021" fill="#FAF0D4" stroke="#4A090B" stroke-width="3.26219"/>
<rect x="255.953" y="301.039" width="27.7286" height="11.4177" fill="#FAF0D4" stroke="#4A090B" stroke-width="3.26219"/>
<path d="M132.805 429.896C132.805 420.887 140.107 413.585 149.116 413.585H301.623C310.631 413.585 317.934 420.887 317.934 429.896V436.42H132.805V429.896Z" fill="#4A090B"/>
<path d="M154.01 130.588H296.73V137.928C296.73 146.936 289.428 154.239 280.42 154.239H170.321C161.312 154.239 154.01 146.936 154.01 137.928V130.588Z" fill="#4A090B"/>
<path d="M170.319 263.524H282.049" stroke="#4A090B" stroke-width="3.26219"/>
<path d="M243.718 289.619H245.349V287.988V250.472C245.349 240.113 236.951 231.715 226.592 231.715C216.232 231.715 207.834 240.113 207.834 250.472V287.988V289.619H209.465H243.718Z" fill="#4A090B" stroke="#4A090B" stroke-width="3.26219"/>
<path d="M238.827 412.766H240.458V411.135V372.804C240.458 362.895 232.425 354.862 222.516 354.862C212.607 354.862 204.574 362.895 204.574 372.804V411.135V412.766H206.205H238.827Z" fill="#4A090B" stroke="#4A090B" stroke-width="3.26219"/>
<rect x="196.417" y="414.398" width="58.7194" height="10.6021" fill="#FAF0D4" stroke="#4A090B" stroke-width="3.26219"/>
<rect x="193.153" y="424.186" width="65.2437" height="11.4177" fill="#FAF0D4" stroke="#4A090B" stroke-width="3.26219"/>
<path d="M224.029 397.761L224.606 398.338L225.182 397.761L228.601 394.343L229.178 393.766L228.601 393.189L220.329 384.917C219.067 383.655 217.02 383.655 215.757 384.917C214.495 386.18 214.495 388.227 215.757 389.489L224.029 397.761Z" fill="#EDD84B" stroke="#4A090B" stroke-width="1.63109"/>
<path d="M233.338 371.449C234.28 369.818 236.634 369.818 237.576 371.449L243.097 381.013C244.039 382.644 242.862 384.683 240.979 384.683H229.935C228.052 384.683 226.875 382.644 227.816 381.013L233.338 371.449Z" fill="#EDD84B"/>
<path fill-rule="evenodd" clip-rule="evenodd" d="M231.947 399.116L228.18 398.5L226.522 408.648L224.892 408.382C223.902 408.221 222.969 408.892 222.808 409.881C222.646 410.87 223.317 411.803 224.307 411.965L227.911 412.554C227.945 412.559 227.979 412.564 228.013 412.568L229.704 412.844L231.947 399.116Z" fill="#EDD84B"/>
<path fill-rule="evenodd" clip-rule="evenodd" d="M240.837 397.951L237.269 399.306L240.918 408.917L239.373 409.503C238.436 409.859 237.965 410.907 238.32 411.844C238.676 412.781 239.725 413.253 240.662 412.897L242.206 412.31L242.207 412.311L245.775 410.956L240.837 397.951Z" fill="#EDD84B"/>
<rect x="222.918" y="377.715" width="24.6384" height="24.6384" fill="#EDD84B"/>
<circle cx="0.763818" cy="0.763818" r="0.763818" transform="matrix(-1 0 0 1 237.846 384.235)" fill="#4A090B"/>
<circle cx="0.763818" cy="0.763818" r="0.763818" transform="matrix(-1 0 0 1 228.933 384.235)" fill="#4A090B"/>
<path d="M233.411 387.933C233.15 388.093 232.554 388.26 231.953 387.933" stroke="#4A090B" stroke-width="1.63109" stroke-linecap="round"/>
<path d="M245.552 390.644L245.552 389.829L244.736 389.829L239.902 389.829L239.086 389.829L239.086 390.644L239.086 397.776C239.086 399.561 240.533 401.009 242.319 401.009C244.104 401.009 245.552 399.561 245.552 397.776L245.552 390.644Z" fill="#EDD84B" stroke="#4A090B" stroke-width="1.63109"/>
<rect x="237.056" y="387.977" width="9.88302" height="3.41812" fill="#EDD84B"/>
<rect x="179.29" y="60.4506" width="92.9723" height="70.137" fill="#FAF0D4" stroke="#4A090B" stroke-width="3.26219"/>
<mask id="path-37-inside-5_1387_4" fill="white">
<path fill-rule="evenodd" clip-rule="evenodd" d="M285.165 51.3269L226.166 10.632L167.167 51.3269H166.643V67.1191H285.692V51.3269H285.165Z"/>
</mask>
<path fill-rule="evenodd" clip-rule="evenodd" d="M285.165 51.3269L226.166 10.632L167.167 51.3269H166.643V67.1191H285.692V51.3269H285.165Z" fill="#4A090B"/>
<path d="M226.166 10.632L228.019 7.94667L226.166 6.66908L224.314 7.94667L226.166 10.632ZM285.165 51.3269L283.313 54.0122L284.149 54.589H285.165V51.3269ZM167.167 51.3269V54.589H168.183L169.02 54.0122L167.167 51.3269ZM166.643 51.3269V48.0647H163.38V51.3269H166.643ZM166.643 67.1191H163.38V70.3813H166.643V67.1191ZM285.692 67.1191V70.3813H288.954V67.1191H285.692ZM285.692 51.3269H288.954V48.0647H285.692V51.3269ZM224.314 13.3174L283.313 54.0122L287.018 48.6415L228.019 7.94667L224.314 13.3174ZM169.02 54.0122L228.019 13.3174L224.314 7.94667L165.315 48.6415L169.02 54.0122ZM166.643 54.589H167.167V48.0647H166.643V54.589ZM169.905 67.1191V51.3269H163.38V67.1191H169.905ZM285.692 63.8569H166.643V70.3813H285.692V63.8569ZM282.43 51.3269V67.1191H288.954V51.3269H282.43ZM285.165 54.589H285.692V48.0647H285.165V54.589Z" fill="#4A090B" mask="url(#path-37-inside-5_1387_4)"/>
<rect x="154.823" y="106.123" width="24.4664" height="27.7286" stroke="#4A090B" stroke-width="3.26219"/>
<rect x="224.963" y="106.123" width="24.4664" height="27.7286" stroke="#4A090B" stroke-width="3.26219"/>
<rect x="248.613" y="106.123" width="24.4664" height="27.7286" stroke="#4A090B" stroke-width="3.26219"/>
<rect x="272.262" y="106.123" width="23.6509" height="27.7286" stroke="#4A090B" stroke-width="3.26219"/>
<rect x="220.882" y="0.915985" width="10.6021" height="24.4664" fill="#4A090B"/>
<path d="M217.229 103.698C218.717 102.938 219.921 101.88 220.647 100.745C221.361 99.6294 221.695 98.2878 221.096 97.1146C220.497 95.9413 219.214 95.4252 217.892 95.3499C216.546 95.2733 214.984 95.6286 213.495 96.3889C212.007 97.1493 210.803 98.2071 210.076 99.3419C209.362 100.457 209.029 101.799 209.628 102.972C210.227 104.146 211.51 104.662 212.832 104.737C214.177 104.814 215.74 104.458 217.229 103.698Z" fill="#DC5E35" stroke="#4A090B" stroke-width="1.63109"/>
<path d="M184.024 103.698C182.535 102.938 181.332 101.88 180.605 100.745C179.891 99.6294 179.557 98.2878 180.157 97.1146C180.756 95.9413 182.038 95.4252 183.361 95.3499C184.706 95.2733 186.269 95.6286 187.757 96.3889C189.246 97.1493 190.45 98.2071 191.176 99.3419C191.89 100.457 192.224 101.799 191.625 102.972C191.025 104.146 189.743 104.662 188.42 104.737C187.075 104.814 185.513 104.458 184.024 103.698Z" fill="#DC5E35" stroke="#4A090B" stroke-width="1.63109"/>
<mask id="path-46-outside-6_1387_4" maskUnits="userSpaceOnUse" x="191.006" y="114.795" width="11" height="18" fill="black">
<rect fill="white" x="191.006" y="114.795" width="11" height="18"/>
<path fill-rule="evenodd" clip-rule="evenodd" d="M200.077 116.795H196.37V126.779H194.769C193.795 126.779 193.006 127.569 193.006 128.542C193.006 129.516 193.795 130.305 194.769 130.305H196.37V130.306H200.077V128.644C200.079 128.61 200.08 128.576 200.08 128.542C200.08 128.508 200.079 128.474 200.077 128.441V116.795Z"/>
</mask>
<path fill-rule="evenodd" clip-rule="evenodd" d="M200.077 116.795H196.37V126.779H194.769C193.795 126.779 193.006 127.569 193.006 128.542C193.006 129.516 193.795 130.305 194.769 130.305H196.37V130.306H200.077V128.644C200.079 128.61 200.08 128.576 200.08 128.542C200.08 128.508 200.079 128.474 200.077 128.441V116.795Z" fill="#DC5E35"/>
<path d="M196.37 116.795V115.164H194.739V116.795H196.37ZM200.077 116.795H201.708V115.164H200.077V116.795ZM196.37 126.779V128.41H198.001V126.779H196.37ZM196.37 130.305H198.001V128.674H196.37V130.305ZM196.37 130.306H194.739V131.937H196.37V130.306ZM200.077 130.306V131.937H201.708V130.306H200.077ZM200.077 128.644L198.449 128.551L198.446 128.598V128.644H200.077ZM200.077 128.441H198.446V128.487L198.449 128.533L200.077 128.441ZM196.37 118.426H200.077V115.164H196.37V118.426ZM198.001 126.779V116.795H194.739V126.779H198.001ZM194.769 128.41H196.37V125.148H194.769V128.41ZM194.637 128.542C194.637 128.469 194.696 128.41 194.769 128.41V125.148C192.895 125.148 191.375 126.668 191.375 128.542H194.637ZM194.769 128.674C194.696 128.674 194.637 128.615 194.637 128.542H191.375C191.375 130.417 192.895 131.936 194.769 131.936V128.674ZM196.37 128.674H194.769V131.936H196.37V128.674ZM198.001 130.306V130.305H194.739V130.306H198.001ZM200.077 128.675H196.37V131.937H200.077V128.675ZM198.446 128.644V130.306H201.708V128.644H198.446ZM198.449 128.542C198.449 128.545 198.449 128.548 198.449 128.551L201.706 128.736C201.709 128.672 201.711 128.607 201.711 128.542H198.449ZM198.449 128.533C198.449 128.536 198.449 128.539 198.449 128.542H201.711C201.711 128.477 201.709 128.412 201.706 128.348L198.449 128.533ZM198.446 116.795V128.441H201.708V116.795H198.446Z" fill="#4A090B" mask="url(#path-46-outside-6_1387_4)"/>
<mask id="path-48-outside-7_1387_4" maskUnits="userSpaceOnUse" x="201.711" y="114.795" width="11" height="18" fill="black">
<rect fill="white" x="201.711" y="114.795" width="11" height="18"/>
<path fill-rule="evenodd" clip-rule="evenodd" d="M203.636 116.795H207.344V126.779H208.948C209.922 126.779 210.711 127.569 210.711 128.542C210.711 129.516 209.922 130.305 208.948 130.305H207.344V130.306H203.636V116.795Z"/>
</mask>
<path fill-rule="evenodd" clip-rule="evenodd" d="M203.636 116.795H207.344V126.779H208.948C209.922 126.779 210.711 127.569 210.711 128.542C210.711 129.516 209.922 130.305 208.948 130.305H207.344V130.306H203.636V116.795Z" fill="#DC5E35"/>
<path d="M207.344 116.795V115.164H208.975V116.795H207.344ZM203.636 116.795H202.005V115.164H203.636V116.795ZM207.344 126.779V128.41H205.713V126.779H207.344ZM207.344 130.305H205.713V128.674H207.344V130.305ZM207.344 130.306H208.975V131.937H207.344V130.306ZM203.636 130.306V131.937H202.005V130.306H203.636ZM207.344 118.426H203.636V115.164H207.344V118.426ZM205.713 126.779V116.795H208.975V126.779H205.713ZM208.948 128.41H207.344V125.148H208.948V128.41ZM209.08 128.542C209.08 128.469 209.021 128.41 208.948 128.41V125.148C210.823 125.148 212.343 126.668 212.343 128.542H209.08ZM208.948 128.674C209.021 128.674 209.08 128.615 209.08 128.542H212.343C212.343 130.417 210.823 131.936 208.948 131.936V128.674ZM207.344 128.674H208.948V131.936H207.344V128.674ZM205.713 130.306V130.305H208.975V130.306H205.713ZM203.636 128.675H207.344V131.937H203.636V128.675ZM205.267 116.795V130.306H202.005V116.795H205.267Z" fill="#4A090B" mask="url(#path-48-outside-7_1387_4)"/>
<path fill-rule="evenodd" clip-rule="evenodd" d="M212.449 95.3173C212.46 95.1103 212.466 94.9018 212.466 94.6921C212.466 88.185 207.191 82.9099 200.683 82.9099C194.176 82.9099 188.901 88.185 188.901 94.6921C188.901 95.095 188.921 95.4932 188.961 95.8858C186.514 98.6868 185.032 102.352 185.032 106.363C185.032 115.163 192.166 122.297 200.966 122.297C209.766 122.297 216.899 115.163 216.899 106.363C216.899 102.075 215.205 98.1816 212.449 95.3173Z" fill="#DC5E35"/>
<circle cx="199.509" cy="92.1988" r="0.741907" fill="#4A090B"/>
<circle cx="208.167" cy="92.1988" r="0.741907" fill="#4A090B"/>
<path d="M203.409 96.2019H204.825" stroke="#4A090B" stroke-width="1.63109" stroke-linecap="round"/>
<rect x="192.203" y="104.155" width="5.26611" height="7.84024" fill="#DC5E35"/>
<rect x="178.476" y="106.123" width="23.6509" height="27.7286" stroke="#4A090B" stroke-width="3.26219"/>
<rect x="201.31" y="106.123" width="24.4664" height="27.7286" stroke="#4A090B" stroke-width="3.26219"/>
<mask id="mask0_1387_4" style="mask-type:alpha" maskUnits="userSpaceOnUse" x="203" y="228" width="42" height="62">
<path d="M241.035 287.409H242.666V285.778V248.727C242.666 238.433 234.321 230.089 224.028 230.089C213.734 230.089 205.389 238.433 205.389 248.727V285.778V287.409H207.021H241.035Z" fill="white" stroke="#212121" stroke-width="3.26219"/>
</mask>
<g mask="url(#mask0_1387_4)">
<path fill-rule="evenodd" clip-rule="evenodd" d="M232.459 280.016L236.778 280.02L236.756 288.134L239.247 288.136C240.038 288.137 240.678 288.779 240.675 289.57C240.673 290.361 240.03 291.002 239.239 291.001L236.748 290.999L236.748 290.999L232.428 290.995L232.459 280.016Z" fill="#F2CDB2"/>
<path fill-rule="evenodd" clip-rule="evenodd" d="M228.317 279.998L223.997 279.991L223.984 288.2L221.507 288.196C220.706 288.195 220.056 288.843 220.055 289.644C220.053 290.444 220.701 291.094 221.502 291.096L223.979 291.1L223.979 291.101L228.299 291.108L228.317 279.998Z" fill="#F2CDB2"/>
<path d="M233.904 249.63C232.222 247.217 228.654 247.212 226.964 249.618C225.94 251.076 224.114 251.738 222.394 251.273C219.555 250.507 216.818 252.796 217.071 255.725C217.224 257.5 216.25 259.181 214.634 259.931C211.966 261.168 211.341 264.681 213.418 266.763C214.676 268.024 215.01 269.938 214.254 271.551C213.006 274.214 214.785 277.307 217.714 277.566C219.488 277.724 220.975 278.975 221.432 280.697C222.187 283.539 225.538 284.764 227.949 283.081C229.41 282.061 231.353 282.064 232.81 283.089C235.215 284.78 238.57 283.565 239.335 280.726C239.798 279.005 241.288 277.759 243.063 277.607C245.993 277.357 247.782 274.27 246.543 271.603C245.792 269.988 246.132 268.075 247.394 266.818C249.478 264.743 248.864 261.228 246.2 259.982C244.587 259.227 243.618 257.543 243.777 255.769C244.039 252.84 241.31 250.542 238.468 251.299C236.747 251.758 234.922 251.091 233.904 249.63Z" fill="#F2CDB2"/>
<circle cx="0.864351" cy="0.864351" r="0.864351" transform="matrix(-0.999999 -0.00162102 -0.00162102 0.999999 236.324 259.985)" fill="#4A090B"/>
<circle cx="0.864351" cy="0.864351" r="0.864351" transform="matrix(-0.999999 -0.00162102 -0.00162102 0.999999 226.237 259.969)" fill="#4A090B"/>
<path d="M231.344 263.612L229.694 263.609" stroke="#4A090B" stroke-width="1.63109" stroke-linecap="round"/>
<path d="M236.299 269.729L236.706 269.022L237.413 269.43L241.626 271.862L242.332 272.27L241.925 272.976L238.855 278.294C237.958 279.848 235.972 280.38 234.418 279.484C232.864 278.587 232.332 276.6 233.229 275.047L236.299 269.729Z" fill="#F2CDB2" stroke="#4A090B" stroke-width="1.63109"/>
<rect width="10.9503" height="4.73609" transform="matrix(0.870717 0.491785 0.491785 -0.870717 233.991 268.846)" fill="#F2CDB2"/>
</g>
<path d="M157.434 74.3684L101.312 65.6726M81.5048 62.6035L63.1978 59.7668" stroke="#4A090B" stroke-width="3.26219" stroke-linecap="round"/>
<path d="M149.557 122.737L59.9177 141.654" stroke="#4A090B" stroke-width="3.26219" stroke-linecap="round"/>
<line x1="16.1816" y1="434.787" x2="423.139" y2="434.787" stroke="#4A090B" stroke-width="3.26219"/>
</svg>
