<svg width="53" height="80" viewBox="0 0 53 80" fill="none" xmlns="http://www.w3.org/2000/svg">
<path d="M12.8648 11.933C12.1608 11.933 11.5848 11.613 11.5848 10.653V5.85298C11.5848 1.69298 20.6088 0.540977 26.4968 0.540977C32.3208 0.540977 41.4728 1.75698 41.4728 5.85298V10.653C41.4728 11.421 40.8968 11.933 39.9368 11.933H39.8088C40.1928 11.613 40.2568 11.421 40.2568 10.973C40.2568 7.38898 32.2568 6.42898 26.4968 6.42898C20.6088 6.42898 12.6728 7.58098 12.6728 10.973C12.6728 11.421 12.8648 11.677 13.3128 11.933H12.8648ZM34.8168 73.885C31.8088 73.885 30.4008 71.773 30.4008 67.613C30.4008 66.141 30.5928 63.133 30.5928 60.445C30.5928 58.397 30.4648 56.413 30.3368 54.557C29.2488 55.325 28.1608 55.581 26.6248 55.581C24.5768 55.581 23.3608 54.685 22.5288 52.829C22.2728 52.253 22.0168 51.933 21.5688 51.933C20.8648 51.933 19.9048 52.573 18.6888 52.573C16.5128 52.573 14.9768 51.485 14.2728 49.437C14.0808 48.861 13.9528 48.797 12.9928 48.797C9.1528 48.797 7.2968 45.149 7.2968 38.365C7.2968 31.325 9.2808 22.493 13.6968 16.669V11.997C16.1288 9.69298 20.6088 8.54098 26.9448 8.54098C31.7448 8.54098 36.9928 9.94898 39.2328 11.933C39.2968 12.125 39.1048 14.493 39.1048 15.517C39.1048 17.757 39.2328 18.589 42.1128 22.237C45.2488 26.205 46.2728 28.765 46.2728 32.605C46.2728 37.021 45.6968 40.605 44.6088 43.293C43.4568 46.109 42.8168 48.349 42.4968 49.501C42.3048 50.269 41.9208 51.037 41.5368 51.549C41.4088 53.405 41.2808 55.261 41.0888 57.117C40.7688 60.061 40.3208 63.773 40.0008 66.397C39.3608 71.645 37.8888 73.885 34.8168 73.885ZM38.7208 50.525H39.3608V50.461C39.5528 50.461 40.0648 49.629 40.2568 48.925C40.5768 47.773 41.2808 45.341 42.4968 42.397C43.4568 40.029 43.9688 36.701 43.9688 32.605C43.9688 29.277 43.1368 27.229 40.2568 23.645C37.2488 19.869 36.8008 18.397 36.8008 15.517C36.8008 14.877 36.8648 13.853 36.9288 13.085C34.6888 11.805 30.6568 10.845 26.9448 10.845C21.8248 10.845 18.1768 11.613 16.0008 13.085V17.437C12.0328 22.109 9.4728 30.173 9.4728 38.365V40.925C9.7928 39.901 10.3048 38.557 11.3288 36.573C12.6728 34.013 14.4008 31.837 15.8088 30.877C16.1288 30.749 16.6408 30.685 17.0888 30.685C17.9208 30.685 18.6888 31.069 19.2008 31.517C20.0328 29.917 20.8648 28.509 21.4408 27.805C21.8248 27.485 22.5288 27.165 23.3608 27.101C22.9768 25.949 22.8488 24.669 22.8488 23.197C22.8488 22.173 22.9768 21.085 23.1688 20.317H25.4088C25.2168 21.021 25.1528 22.365 25.1528 23.197C25.1528 24.989 25.3448 26.397 25.9208 27.549C26.9448 28.125 27.6488 29.149 27.7768 30.429C28.3528 30.237 28.9928 30.109 29.6328 30.109C31.8088 30.109 33.6648 31.517 33.6648 34.141C33.6648 35.101 33.3448 36.061 32.9608 37.085C33.4088 37.405 33.9208 37.789 34.4968 38.109C34.8808 36.701 35.3928 35.613 35.8408 35.165L37.3768 36.893C36.5448 37.661 35.2648 44.509 35.2648 47.133C35.2648 48.861 36.3528 50.525 38.7208 50.525ZM18.4328 50.525C19.4568 50.525 20.4168 50.269 21.0568 50.013C20.8008 49.373 20.7368 48.925 20.7368 48.285C20.7368 46.813 21.3128 42.973 22.2088 40.221C23.1688 37.277 24.5128 34.525 25.7928 32.477C25.9848 31.965 26.1128 31.517 26.1128 31.069C26.1128 29.917 25.0888 29.213 24.0008 29.213C23.4888 29.213 22.9128 29.405 22.5288 29.661C21.6328 30.877 19.4568 35.101 18.3688 37.917C16.8968 41.693 15.9368 44.509 15.9368 46.941C15.9368 48.925 16.6408 50.525 18.4328 50.525ZM26.4328 53.277C27.9688 53.277 29.4408 53.085 30.4008 51.869C30.4648 51.421 30.4648 51.037 30.4648 50.717C30.4648 48.285 29.5048 47.581 27.8408 47.581C28.2888 43.421 29.1208 41.117 30.0168 38.749C30.5288 37.149 31.7448 35.421 31.5528 34.013C31.4888 33.309 31.1048 32.349 29.8888 32.349C29.3768 32.349 28.5448 32.669 28.3528 32.733C27.3928 33.949 25.8568 36.381 24.3848 40.541C23.4888 43.037 23.0408 46.301 23.0408 47.965C23.0408 48.989 23.4248 49.949 24.4488 51.613C25.3448 53.021 25.5368 53.277 26.4328 53.277ZM13.5688 46.877C13.6968 46.877 13.8248 46.877 13.9528 46.813V46.365C13.9528 42.845 15.5528 39.645 16.5128 37.277C16.9608 36.253 17.5368 34.909 18.1768 33.629C17.7928 33.245 17.1528 32.925 16.5768 32.861C15.6168 33.565 14.2728 35.229 13.3128 36.957C12.0328 39.261 11.0088 40.605 11.0088 44.509C11.0088 46.557 12.6088 46.877 13.5688 46.877ZM34.8168 71.581C36.4168 71.581 37.0568 70.237 37.6968 66.077C38.0808 63.517 38.4648 59.997 38.7848 56.797C38.9128 55.645 38.9768 54.237 39.1048 52.765H38.7848C35.0728 52.765 32.9608 50.205 32.9608 47.261C32.9608 45.597 33.3448 42.845 33.9208 40.349C33.2808 40.029 32.7048 39.645 32.1288 39.261V39.325C31.7448 40.413 30.9128 42.397 30.4008 45.725C31.9368 46.173 32.7048 48.029 32.7048 49.885C32.7048 51.037 32.6408 51.677 32.5128 52.253C32.6408 54.813 32.8968 57.949 32.8968 60.445C32.8968 63.197 32.7048 66.205 32.7048 67.613C32.7048 70.685 33.3448 71.581 34.8168 71.581Z" fill="#4A090B"/>
</svg>
